<svg xmlns="http://www.w3.org/2000/svg" viewBox="0 0 750 500"><g id="freepik--background-complete--inject-21"><path d="M416.76,231.25s0-.93,0-2.7,0-4.4,0-7.83c0-6.85,0-16.89-.07-29.7,0-25.59-.08-62.22-.14-106.41l.27.27-184.29.05h0l.32-.32c0,52.94,0,103,0,146.64l-.29-.28,133.14.14,37.71.07,10,0,2.57,0h.89l-.85,0h-2.55l-9.94,0-37.64.07-133.33.15h-.28v-.29c0-43.67,0-93.7,0-146.64v-.32h.33l184.29.06H417v.26c-.06,44.26-.1,80.94-.14,106.58,0,12.78-.05,22.8-.06,29.64,0,3.4,0,6,0,7.78S416.76,231.25,416.76,231.25Z" style="fill:#e0e0e0"></path><rect x="256.28" y="111.79" width="6.66" height="74.43" style="fill:#e0e0e0"></rect><rect x="269.14" y="137.07" width="6.66" height="49.15" style="fill:#ebebeb"></rect><rect x="282.01" y="121.04" width="6.66" height="65.55" style="fill:#e0e0e0"></rect><rect x="294.88" y="114.66" width="6.66" height="71.55" style="fill:#ebebeb"></rect><rect x="307.74" y="138.58" width="6.66" height="47.64" style="fill:#e0e0e0"></rect><rect x="320.61" y="147.92" width="6.66" height="38.29" style="fill:#ebebeb"></rect><rect x="333.47" y="119.43" width="6.66" height="66.79" style="fill:#e0e0e0"></rect><rect x="346.34" y="131.47" width="6.66" height="54.75" style="fill:#ebebeb"></rect><rect x="359.21" y="121.85" width="6.66" height="64.37" style="fill:#e0e0e0"></rect><rect x="372.07" y="142.36" width="6.66" height="43.85" style="fill:#ebebeb"></rect><rect x="384.94" y="134.02" width="6.66" height="52.2" style="fill:#e0e0e0"></rect><path d="M394.32,191.4c0,.15-31.61.27-70.59.27s-70.61-.12-70.61-.27,31.61-.27,70.61-.27S394.32,191.25,394.32,191.4Z" style="fill:#e0e0e0"></path><path d="M265.78,197.26a45.42,45.42,0,0,1-9.89,0,43.81,43.81,0,0,1,9.89,0Z" style="fill:#e0e0e0"></path><path d="M282.19,197.56a32.52,32.52,0,0,1-5.91.27,32.43,32.43,0,0,1-5.91-.27,31.85,31.85,0,0,1,5.91-.28A31.94,31.94,0,0,1,282.19,197.56Z" style="fill:#e0e0e0"></path><path d="M296.18,197.56a32.43,32.43,0,0,1-5.91.27,32.52,32.52,0,0,1-5.91-.27,31.94,31.94,0,0,1,5.91-.28A31.85,31.85,0,0,1,296.18,197.56Z" style="fill:#e0e0e0"></path><path d="M310.17,197.56a64.82,64.82,0,0,1-11.82,0,62.51,62.51,0,0,1,11.82,0Z" style="fill:#e0e0e0"></path><path d="M324.17,197.56a64.82,64.82,0,0,1-11.82,0,62.51,62.51,0,0,1,11.82,0Z" style="fill:#e0e0e0"></path><path d="M338.16,197.56a64.82,64.82,0,0,1-11.82,0,62.51,62.51,0,0,1,11.82,0Z" style="fill:#e0e0e0"></path><path d="M352.15,197.56a64.82,64.82,0,0,1-11.82,0,62.51,62.51,0,0,1,11.82,0Z" style="fill:#e0e0e0"></path><path d="M366.14,197.56a64.82,64.82,0,0,1-11.82,0,62.51,62.51,0,0,1,11.82,0Z" style="fill:#e0e0e0"></path><path d="M380.14,197.56a64.93,64.93,0,0,1-11.83,0,62.62,62.62,0,0,1,11.83,0Z" style="fill:#e0e0e0"></path><path d="M394.13,197.56a64.82,64.82,0,0,1-11.82,0,62.51,62.51,0,0,1,11.82,0Z" style="fill:#e0e0e0"></path><rect x="226.55" y="83.74" width="195.43" height="5.51" style="fill:#ebebeb"></rect><path d="M594.69,368.21a25.48,25.48,0,0,0-10.85-3.74c-1.77-.18-3.71-.13-5.13.95-.3.23-.6.56-.53.93a1.15,1.15,0,0,0,.5.65,15.53,15.53,0,0,0,16,1.21" style="fill:#e0e0e0"></path><path d="M594.41,367.9a53.48,53.48,0,0,1-7-6.16,17.75,17.75,0,0,1-4.39-8.13,3.26,3.26,0,0,1,.35-2.72c5.58,4.37,10,10,11,17" style="fill:#e0e0e0"></path><path d="M594.63,368.17a25.39,25.39,0,0,1,.13-9.2,12.43,12.43,0,0,1,4.9-7.6c1,2.26.55,4.86-.13,7.22a35.11,35.11,0,0,1-4.86,10.23" style="fill:#e0e0e0"></path><path d="M600.1,378a16,16,0,0,0-8.7,4.4,16.49,16.49,0,0,0-5,8.54c3.26-.2,6-2.5,8-5.08s3.4-5.4,5.6-7.81" style="fill:#e0e0e0"></path><path d="M601.29,379.55a21.5,21.5,0,0,1,2.48-20.3,25.81,25.81,0,0,1-2.48,20.3" style="fill:#e0e0e0"></path><path d="M608.53,388.16a15.54,15.54,0,0,0-14.84,8.54,1.16,1.16,0,0,0-.1,1.16,1.09,1.09,0,0,0,1,.29c2.92-.19,5.51-1.95,7.65-3.95s4-4.32,6.36-6.05" style="fill:#e0e0e0"></path><path d="M608.3,387.69a27.55,27.55,0,0,1-.28-15.43c.55-2,1.46-4.08,3.3-5a.64.64,0,0,1,.5-.09.65.65,0,0,1,.32.37,9.27,9.27,0,0,1,.77,4.42,27.22,27.22,0,0,1-.69,4.49c-.58,2.74-.89,5.68-2.39,8a17.74,17.74,0,0,0-1,1.77c-.29.6-.29.81-.55,1.29" style="fill:#e0e0e0"></path><path d="M627.45,390.54a19.86,19.86,0,0,1,3.49-16.36,1.26,1.26,0,0,1,1-.64c.62.06.79.9.76,1.52a29.63,29.63,0,0,1-5.24,15.48" style="fill:#e0e0e0"></path><path d="M629.17,391.72a23.81,23.81,0,0,0,19.54-4,15.88,15.88,0,0,0-10.58-1.3,15.11,15.11,0,0,0-9,5.27" style="fill:#e0e0e0"></path><path d="M630.63,388.13a22.57,22.57,0,0,1,17.73-10.25,11,11,0,0,1-5.8,6.41,32.43,32.43,0,0,1-8.51,2.49c-1.13.22-2.69.46-3.42,1.35" style="fill:#e0e0e0"></path><path d="M627.81,370.69a50.78,50.78,0,0,0,2.27-10.38A17.29,17.29,0,0,0,628,350a22.6,22.6,0,0,0-.3,21" style="fill:#e0e0e0"></path><path d="M639.36,364.86c4-7.29,12.2-13.12,20.48-13.93-3.2,7.95-11.91,14.1-20.48,13.93" style="fill:#e0e0e0"></path><path d="M636.84,366.29c6,.91,11.08,4.73,16.67,7a7.49,7.49,0,0,0,3.77.73,3,3,0,0,0,1.84-5.22,8,8,0,0,0-2.73-1.66c-6.09-2.54-12.62-2.6-19-1.06" style="fill:#e0e0e0"></path><path d="M633.38,370.48c1.35.39,1.81,1.09,2.89,2a31.08,31.08,0,0,0,12.64,6.5c.48.12,1.11.17,1.35-.27s0-.84-.33-1.18a17.31,17.31,0,0,0-7.63-5.18c-2.92-1.09-5.44-2.4-8.92-2.12" style="fill:#e0e0e0"></path><path d="M629.47,345.14a23.93,23.93,0,0,0,18.34,6.24,1.26,1.26,0,0,0,.83-.3c.47-.5-.09-1.28-.63-1.7-5.39-4.2-11.92-5.94-18.54-4.24" style="fill:#e0e0e0"></path><path d="M634.1,343.45A25.54,25.54,0,0,1,657,339.67a18.2,18.2,0,0,1-10.91,4.79,34.61,34.61,0,0,1-12-1" style="fill:#e0e0e0"></path><path d="M632.26,331.8c-.53-5.38-.19-9.63-.56-15,0-.43-.12-.95-.53-1.11s-1,.48-1.21,1.05a17.22,17.22,0,0,0,2.29,15" style="fill:#e0e0e0"></path><path d="M631.87,332.4a31.74,31.74,0,0,0,8.92-8.67c1.76-2.41,3.24-5.3,2.84-8.25a8.53,8.53,0,0,0-6.43,3.19,18,18,0,0,0-3.28,6.6c-.71,2.36-1.21,4.8-2,7.13" style="fill:#e0e0e0"></path><path d="M640.63,330A71.61,71.61,0,0,0,662.57,317c-2.62-1-5.62-.42-8.24.64a25.91,25.91,0,0,0-13.81,12.24" style="fill:#e0e0e0"></path><path d="M634.34,335.34a44.77,44.77,0,0,0,12.18.06,51.82,51.82,0,0,0,11.37-3.78,1.34,1.34,0,0,0,.78-.59.89.89,0,0,0-.28-1,2.28,2.28,0,0,0-1-.45,21,21,0,0,0-12.29.73,56.5,56.5,0,0,0-10.79,5" style="fill:#e0e0e0"></path><path d="M611.21,345.32a21.5,21.5,0,0,1-.2-17.83c1.68,2.56,1.89,5.82,1.58,8.87s-1.24,6.18-1.3,9.24" style="fill:#e0e0e0"></path><path d="M600.17,339.76a24.85,24.85,0,0,0-18.49,7.87,17.26,17.26,0,0,0,10.12-1.88,50.71,50.71,0,0,0,8.68-5.8" style="fill:#e0e0e0"></path><path d="M592.75,337.27c-3.38-.27-6.63-.69-9.87.31a11.81,11.81,0,0,0-7.52,6.37,17.82,17.82,0,0,0,9.25-1.74,53.36,53.36,0,0,0,8.14-4.94" style="fill:#e0e0e0"></path><path d="M603.74,337.39c-3-2-6.16-4-9.69-4.84s-7.64-.22-10.1,2.45c2.86,1.68,6.33,1.88,9.65,1.87s7.39,0,10.51,1.07" style="fill:#e0e0e0"></path><path d="M603.75,337.55c-5.19-5.1-7.16-14.26-5.07-21.22a32.29,32.29,0,0,1,5.07,21.22" style="fill:#e0e0e0"></path><path d="M618,323.11c1-2.28,1.66-4.67,2.54-7a20.14,20.14,0,0,1,3.63-6.43,9.56,9.56,0,0,1,6.43-3.33,25.89,25.89,0,0,1-12.48,16.78" style="fill:#e0e0e0"></path><path d="M615.44,326.12c-1.62-2.23-3.49-5.26-5.68-6.93a9.53,9.53,0,0,0-7.74-2,18,18,0,0,0,13.42,9" style="fill:#e0e0e0"></path><path d="M616,323.29A38.6,38.6,0,0,1,613.4,315a12.9,12.9,0,0,1,1.3-8.43c2.85,5.38,3.77,11.16,1.41,16.78" style="fill:#e0e0e0"></path><path d="M618.05,306.57c1.62-5.34,6.51-9.28,11.79-11.08a4.31,4.31,0,0,1,2.06-.31,1.78,1.78,0,0,1,1.52,1.27c.2.91-.55,1.72-1.26,2.33a40.21,40.21,0,0,1-14.11,7.79" style="fill:#e0e0e0"></path><path d="M618.11,302.2a38.45,38.45,0,0,1,1.54-10.2c1.12-3.26,3.28-6.32,6.42-7.75.53,3.48-1,6.94-2.85,9.93s-4.08,5.82-5.19,9.15" style="fill:#e0e0e0"></path><path d="M618,304.57c-1.34-3.89-1.47-8.84-3.8-12.23-1.63-2.37-4.24-4-5.65-6.49a9.91,9.91,0,0,0,.33,7.37,21.45,21.45,0,0,0,4.31,6.17c1.73,1.85,3.2,3.23,4.81,5.18" style="fill:#e0e0e0"></path><path d="M618.05,419.17c-.1,0-.19-26-.2-58s.07-58,.18-58,.19,26,.2,58S618.16,419.17,618.05,419.17Z" style="fill:#e0e0e0"></path><path d="M640.74,341.41a6.08,6.08,0,0,1-1,.36l-2.68.91c-2.27.77-5.38,1.89-8.76,3.27s-6.49,2.6-8.29,4.16a6,6,0,0,0-1.66,2.2c-.26.61-.31,1-.34,1s0-.1,0-.27a3.76,3.76,0,0,1,.19-.76,5.84,5.84,0,0,1,1.63-2.35,14.76,14.76,0,0,1,3.59-2.24c1.44-.67,3-1.37,4.73-2.06,3.39-1.39,6.52-2.47,8.81-3.18,1.15-.36,2.08-.62,2.73-.8A4.63,4.63,0,0,1,640.74,341.41Z" style="fill:#e0e0e0"></path><path d="M648.18,323.14a2.27,2.27,0,0,1-.28.29l-.83.79L644,327l-10.35,9.22c-4,3.59-7.53,7-10,9.62-1.22,1.29-2.17,2.36-2.82,3.11l-.75.86c-.18.19-.27.29-.28.28a1.31,1.31,0,0,1,.22-.33c.16-.21.38-.52.7-.91.62-.77,1.54-1.87,2.73-3.19a131.05,131.05,0,0,1,9.9-9.72c4-3.59,7.74-6.81,10.42-9.14l3.19-2.73.88-.73A1.51,1.51,0,0,1,648.18,323.14Z" style="fill:#e0e0e0"></path><path d="M629.25,339.91c-.11,0,.73-2,1.58-4.46s1.24-4.54,1.35-4.52a15.05,15.05,0,0,1-1,4.64,28,28,0,0,1-1.26,3.12A4.65,4.65,0,0,1,629.25,339.91Z" style="fill:#e0e0e0"></path><path d="M618.08,355.63a6,6,0,0,1-.63-.73l-1.59-2c-1.34-1.73-3.19-4.12-5.27-6.74s-4-5-5.37-6.66l-1.63-2a4.42,4.42,0,0,1-.56-.77,5.25,5.25,0,0,1,.67.68c.42.45,1,1.11,1.73,1.94,1.43,1.65,3.38,4,5.46,6.6s3.89,5,5.18,6.81c.65.89,1.16,1.61,1.5,2.12A4.15,4.15,0,0,1,618.08,355.63Z" style="fill:#e0e0e0"></path><path d="M613.1,349.24a9.09,9.09,0,0,1-2.08-3.9,11,11,0,0,1-.47-3.93h.16c-.07.3-.13.46-.16.46s0-.18,0-.49l.16,0a17.76,17.76,0,0,0,.67,3.82A28.88,28.88,0,0,0,613.1,349.24Z" style="fill:#e0e0e0"></path><path d="M606.68,341.16a7.26,7.26,0,0,0-1.45-.84,9.65,9.65,0,0,0-4-.32,25.54,25.54,0,0,0-4.07.65,13.38,13.38,0,0,1-1.67.41,5.39,5.39,0,0,1,1.6-.66,18.55,18.55,0,0,1,4.11-.78,8.9,8.9,0,0,1,4.17.45A2.61,2.61,0,0,1,606.68,341.16Z" style="fill:#e0e0e0"></path><path d="M605.16,339.21c0,.05-.85-.34-2.23-.82a23.06,23.06,0,0,0-5.56-1.14,22.73,22.73,0,0,0-5.67.29c-1.44.26-2.31.52-2.33.46a2.31,2.31,0,0,1,.59-.25,14,14,0,0,1,1.69-.47,19.8,19.8,0,0,1,5.75-.4,19.43,19.43,0,0,1,5.62,1.27,13.77,13.77,0,0,1,1.59.72C605,339.06,605.17,339.18,605.16,339.21Z" style="fill:#e0e0e0"></path><path d="M618,330.93a47.12,47.12,0,0,1-1.63-5.65,45.07,45.07,0,0,1-1.26-5.74,46.43,46.43,0,0,1,1.63,5.65A47.25,47.25,0,0,1,618,330.93Z" style="fill:#e0e0e0"></path><path d="M618.13,330.93a26.05,26.05,0,0,0-1.8-3.38,15,15,0,0,0-2.65-2.74,2.35,2.35,0,0,1,1,.53,8.38,8.38,0,0,1,1.94,2A7.57,7.57,0,0,1,618.13,330.93Z" style="fill:#e0e0e0"></path><path d="M618.05,405.33s-.11-.62-.41-1.73a24.72,24.72,0,0,0-1.73-4.49,62.32,62.32,0,0,0-9.2-13c-2.06-2.35-4.05-4.56-5.75-6.68a48.23,48.23,0,0,1-4.1-5.92,27.52,27.52,0,0,1-2.07-4.39c-.19-.55-.33-1-.41-1.26a2.93,2.93,0,0,1-.11-.45s.23.59.65,1.65a33.13,33.13,0,0,0,2.17,4.32,49.77,49.77,0,0,0,4.14,5.83c1.7,2.1,3.7,4.3,5.76,6.66A58.94,58.94,0,0,1,616.15,399a22.57,22.57,0,0,1,1.64,4.58,13.1,13.1,0,0,1,.23,1.3A1.78,1.78,0,0,1,618.05,405.33Z" style="fill:#e0e0e0"></path><path d="M638.55,382.18a11.53,11.53,0,0,1-1.07.6,23.5,23.5,0,0,0-2.79,1.84A33,33,0,0,0,631,388c-1.28,1.36-2.61,2.93-4,4.62-2.7,3.39-5.22,6.39-6.73,8.78-.77,1.19-1.33,2.19-1.7,2.89a7.7,7.7,0,0,1-.59,1.08,1.61,1.61,0,0,1,.1-.3c.08-.2.19-.49.36-.85a29,29,0,0,1,1.6-3,97.76,97.76,0,0,1,6.67-8.87c1.35-1.7,2.69-3.27,4-4.63a30.07,30.07,0,0,1,3.75-3.31,20.32,20.32,0,0,1,2.88-1.76c.36-.18.65-.29.84-.37S638.55,382.16,638.55,382.18Z" style="fill:#e0e0e0"></path><path d="M639,389.69a16.1,16.1,0,0,1-2.27.33,29.48,29.48,0,0,0-5.38,1.06,16.16,16.16,0,0,0-4.82,2.53c-1.12.86-1.64,1.57-1.69,1.53s.09-.21.33-.53a10,10,0,0,1,1.19-1.21,14.67,14.67,0,0,1,4.87-2.68,24.8,24.8,0,0,1,5.48-1A12.2,12.2,0,0,1,639,389.69Z" style="fill:#e0e0e0"></path><path d="M625.45,394.31c-.12-.07.91-1.63,1.7-3.73s.92-4,1.05-4a3.41,3.41,0,0,1,0,1.22,12.29,12.29,0,0,1-.66,2.87,13.34,13.34,0,0,1-1.31,2.63A3.71,3.71,0,0,1,625.45,394.31Z" style="fill:#e0e0e0"></path><path d="M645.19,362a1.49,1.49,0,0,1-.36.19l-1.07.49c-.47.2-1,.45-1.67.79s-1.39.67-2.17,1.14l-1.24.7c-.43.25-.86.54-1.31.83-.91.55-1.83,1.23-2.8,1.93a53.63,53.63,0,0,0-5.86,5.15,52.67,52.67,0,0,0-4.94,6c-.67,1-1.32,1.94-1.84,2.87-.27.46-.55.89-.78,1.33l-.66,1.26c-.44.8-.76,1.56-1.07,2.21s-.55,1.23-.73,1.7l-.45,1.08a1.3,1.3,0,0,1-.18.37,2.22,2.22,0,0,1,.11-.39c.1-.29.23-.66.38-1.11s.38-1.07.68-1.73.59-1.44,1-2.25c.21-.4.42-.83.65-1.28s.5-.88.76-1.35c.52-.94,1.16-1.9,1.82-2.91a46.43,46.43,0,0,1,10.88-11.26c1-.69,1.92-1.37,2.85-1.91.45-.28.89-.57,1.32-.82l1.26-.68c.79-.46,1.55-.79,2.21-1.1s1.23-.56,1.7-.74l1.1-.42A1.91,1.91,0,0,1,645.19,362Z" style="fill:#e0e0e0"></path><path d="M629,372.88a2.63,2.63,0,0,1,.89-1.33,5.66,5.66,0,0,1,3.59-1.38,9.86,9.86,0,0,1,3.79.74,5.16,5.16,0,0,1,1.43.7,9.79,9.79,0,0,1-1.52-.45,11.5,11.5,0,0,0-3.68-.61,5.84,5.84,0,0,0-3.44,1.2A11,11,0,0,0,629,372.88Z" style="fill:#e0e0e0"></path><path d="M626.54,375.38a12.88,12.88,0,0,0,1-3.32,13.19,13.19,0,0,0-.23-3.46s.25.33.43,1a7.12,7.12,0,0,1,.18,2.55,7,7,0,0,1-.76,2.43C626.86,375.11,626.58,375.41,626.54,375.38Z" style="fill:#e0e0e0"></path><path d="M600.12,409.05c.56,9.92,3.55,20,8.15,30.21h20c4.38-10.1,7.17-20.17,7.66-30.21Z" style="fill:#e0e0e0"></path><path d="M632.69,425.1c0,.11-6.58.19-14.7.19s-14.71-.08-14.71-.19,6.58-.18,14.71-.18S632.69,425,632.69,425.1Z" style="fill:#fafafa"></path><path d="M632.24,428.7c0,.1-6.17.19-13.78.19s-13.79-.09-13.79-.19,6.17-.19,13.79-.19S632.24,428.59,632.24,428.7Z" style="fill:#fafafa"></path><path d="M608.59,415.56a56,56,0,0,1,0,9.22,59.12,59.12,0,0,1,0-9.22Z" style="fill:#fafafa"></path><path d="M619.31,415.56a60,60,0,0,1,0,9.54,60,60,0,0,1,0-9.54Z" style="fill:#fafafa"></path><path d="M629.37,415.48a65.84,65.84,0,0,1,0,9.73,62.38,62.38,0,0,1,0-9.73Z" style="fill:#fafafa"></path><path d="M635.3,415.56c0,.11-7.73.19-17.25.19s-17.25-.08-17.25-.19,7.72-.18,17.25-.18S635.3,415.46,635.3,415.56Z" style="fill:#fafafa"></path><path d="M216.87,267.78s-6.25-.45-5.67,13.56a160.74,160.74,0,0,0,2,21.49s-.19,3.11-2.6,2.5-6.93-3.64-9.17-1.38S200,309.89,203,314.13s9.48,13.77,10.06,14.63.79,2.44-.92,2.29-13.22-4.06-14.75,1.52,9,16,10.11,17.12,1.19,1.89.74,2.59-4.21-1-7.53-1.95-7.34-1.52-8,1.77,4,12.92,21.36,23l8.34,4.16,7.89-5c16.24-11.81,19.88-21.85,18.95-25.06s-4.89-2.27-8.09-1-6.77,3.35-7.3,2.7-.53-1.38.47-2.65,10.43-12.66,8.35-18.05-13.14-.36-14.83,0-1.61-1.28-1.14-2.18,5.9-11,8.54-15.57,3.1-8.18.56-10.28-6.66,1.44-9,2.28-2.83-2.22-2.83-2.22a161.85,161.85,0,0,0-.15-21.58c-.83-14-7.15-12.87-7.15-12.87" style="fill:#ebebeb"></path><path d="M217.37,280.33l0,.29c0,.21,0,.5.07.86.05.78.12,1.89.22,3.31.19,2.88.44,7,.72,12.18.57,10.29,1.24,24.51,1.93,40.21s1.32,29.93,1.83,40.22c.26,5.14.47,9.3.62,12.19.07,1.43.13,2.54.17,3.31,0,.37,0,.66,0,.86a2.25,2.25,0,0,1,0,.3,2.25,2.25,0,0,1,0-.29c0-.21,0-.5-.07-.86,0-.78-.13-1.89-.22-3.31-.19-2.88-.44-7-.72-12.18-.58-10.29-1.24-24.51-1.93-40.22s-1.32-29.92-1.83-40.21c-.26-5.14-.48-9.3-.62-12.19-.07-1.43-.13-2.54-.17-3.31,0-.37,0-.66,0-.86A2.25,2.25,0,0,1,217.37,280.33Z" style="fill:#e0e0e0"></path><path d="M207.61,308.44a2.82,2.82,0,0,1,.52.43c.32.29.77.73,1.32,1.27,1.1,1.09,2.58,2.64,4.18,4.37l4.08,4.47,1.24,1.34a2.81,2.81,0,0,1,.44.52s-.2-.14-.53-.43-.77-.73-1.31-1.28c-1.09-1.1-2.55-2.66-4.15-4.4l-4.11-4.43L208,309A2.82,2.82,0,0,1,207.61,308.44Z" style="fill:#e0e0e0"></path><path d="M220.21,320.56c-.06-.06,3-3.25,6.81-7.13s7-7,7-6.91-3,3.26-6.81,7.14S220.28,320.63,220.21,320.56Z" style="fill:#e0e0e0"></path><path d="M220.18,344.73a3,3,0,0,1,.58-.37l1.63-.91c1.38-.78,3.28-1.85,5.33-3.11s3.87-2.46,5.18-3.34l1.56-1a3.57,3.57,0,0,1,.59-.36s-.17.18-.52.46-.86.66-1.5,1.12c-1.28.93-3.09,2.16-5.15,3.42s-4,2.31-5.38,3c-.71.36-1.28.64-1.68.82A2.58,2.58,0,0,1,220.18,344.73Z" style="fill:#e0e0e0"></path><path d="M206.36,336.28a2,2,0,0,1,.58.27c.36.19.88.48,1.51.84,1.27.72,3,1.73,4.93,2.87s3.64,2.19,4.88,3c.62.38,1.12.7,1.46.93a2.36,2.36,0,0,1,.51.37,2.72,2.72,0,0,1-.58-.27c-.36-.19-.87-.48-1.51-.84-1.27-.72-3-1.73-4.93-2.87s-3.63-2.19-4.87-3c-.62-.39-1.12-.7-1.46-.93A2.76,2.76,0,0,1,206.36,336.28Z" style="fill:#e0e0e0"></path><path d="M203.62,357.61a4.23,4.23,0,0,1,.73.35l2,1.07c1.63.92,3.87,2.2,6.34,3.64s4.69,2.75,6.3,3.72l1.89,1.16a4.22,4.22,0,0,1,.67.46,4.17,4.17,0,0,1-.74-.36l-1.94-1.07c-1.63-.91-3.87-2.2-6.34-3.63s-4.69-2.76-6.3-3.72l-1.89-1.16A4.22,4.22,0,0,1,203.62,357.61Z" style="fill:#e0e0e0"></path><path d="M221.14,367.64a4.89,4.89,0,0,1,.73-.49l2-1.23c1.71-1,4.07-2.49,6.63-4.16s4.84-3.23,6.49-4.38l2-1.35a4.55,4.55,0,0,1,.73-.47,3.82,3.82,0,0,1-.66.57c-.44.34-1.08.84-1.89,1.43-1.61,1.2-3.88,2.8-6.44,4.47s-4.95,3.09-6.69,4.08c-.88.5-1.59.89-2.08,1.15A4.94,4.94,0,0,1,221.14,367.64Z" style="fill:#e0e0e0"></path><polygon points="233.68 382.03 210.6 382.03 218.13 439.04 226.14 439.04 233.68 382.03" style="fill:#e0e0e0"></polygon><path d="M211.8,389s0,.08.12.2a1.49,1.49,0,0,0,.56.4,2.78,2.78,0,0,0,2.44-.3c.93-.51,1.74-1.52,3-2a6.58,6.58,0,0,1,4.24.09,18.11,18.11,0,0,1,3.95,1.91,28.38,28.38,0,0,0,3.21,1.73,9.1,9.1,0,0,0,2.37.68,5,5,0,0,0,.67.05.64.64,0,0,0,.24,0,12.45,12.45,0,0,1-3.17-1,29.3,29.3,0,0,1-3.14-1.78,17.5,17.5,0,0,0-4-2,6.76,6.76,0,0,0-4.48-.05,5.84,5.84,0,0,0-1.68,1,13.33,13.33,0,0,1-1.32,1,2.77,2.77,0,0,1-2.25.39A2.32,2.32,0,0,1,211.8,389Z" style="fill:#f5f5f5"></path><path d="M212.64,399.54s.18-.23.54-.61a5,5,0,0,1,1.85-1.17,8.2,8.2,0,0,1,3.21-.48,33.74,33.74,0,0,1,4,.54,13.73,13.73,0,0,0,4.11.17,11.22,11.22,0,0,0,3.24-.92,9.81,9.81,0,0,0,1.94-1.16,2.94,2.94,0,0,0,.62-.55,22.41,22.41,0,0,1-2.67,1.47,12.07,12.07,0,0,1-3.17.82,14.19,14.19,0,0,1-4-.2,29.52,29.52,0,0,0-4.06-.52,8.09,8.09,0,0,0-3.32.58,4.78,4.78,0,0,0-1.85,1.32,2.75,2.75,0,0,0-.35.51C212.66,399.47,212.63,399.53,212.64,399.54Z" style="fill:#f5f5f5"></path><path d="M231.06,405.16a1.83,1.83,0,0,0-.63-.33,7,7,0,0,0-1.92-.41,12.43,12.43,0,0,0-2.89.17c-1.07.17-2.23.47-3.44.72a14.21,14.21,0,0,1-3.43.39,7.39,7.39,0,0,1-2.73-.59,6.12,6.12,0,0,1-2.07-1.54,1.6,1.6,0,0,0,.39.6,4.75,4.75,0,0,0,1.57,1.18,7.3,7.3,0,0,0,2.82.7,13.82,13.82,0,0,0,3.53-.37c1.22-.26,2.37-.56,3.42-.75a12.77,12.77,0,0,1,2.82-.24A10.47,10.47,0,0,1,231.06,405.16Z" style="fill:#f5f5f5"></path><path d="M214.68,413.07a3.68,3.68,0,0,1,2.24-.23,11.44,11.44,0,0,1,2.34.87,8.68,8.68,0,0,0,3.05.84,9.09,9.09,0,0,0,5.52-1.28,8,8,0,0,0,1.37-1,2.49,2.49,0,0,0,.41-.49,22,22,0,0,1-1.92,1.31,9.38,9.38,0,0,1-5.35,1.14c-2.19-.13-3.86-1.43-5.38-1.6a3.4,3.4,0,0,0-1.74.15C214.83,412.88,214.67,413.05,214.68,413.07Z" style="fill:#f5f5f5"></path><path d="M216,424a4.48,4.48,0,0,0,1.93-.38c1.16-.39,2.59-1.28,4.27-1.95a7,7,0,0,1,2.45-.51,4.44,4.44,0,0,1,2,.45,4.5,4.5,0,0,1,1.43,1.23s0-.2-.22-.49a3.19,3.19,0,0,0-1.08-1,4.59,4.59,0,0,0-2.09-.57,7,7,0,0,0-2.59.51c-1.74.69-3.13,1.61-4.24,2.05S216,424,216,424Z" style="fill:#f5f5f5"></path><path d="M217.1,429.1a4.92,4.92,0,0,0,1.46.47,25.76,25.76,0,0,0,3.65.62,27.37,27.37,0,0,0,3.7.11,6.2,6.2,0,0,0,1.53-.18c0-.12-2.34,0-5.19-.31S217.12,429,217.1,429.1Z" style="fill:#f5f5f5"></path><rect x="471.79" y="105.73" width="104.24" height="93.26" style="fill:#fafafa"></rect><path d="M576,199s0-.6,0-1.73,0-2.82,0-5c0-4.38,0-10.78-.06-18.93,0-16.29-.07-39.58-.12-67.6l.24.24L471.8,106h0l.28-.28c0,33.93,0,65.86,0,93.26l-.24-.25,75.39.13,21.27.06,5.63,0,1.45,0h0l-1.43,0-5.58,0-21.21.06-75.55.12h-.25V199c0-27.4,0-59.33,0-93.26v-.28h.29l104.23,0h.24v.24c0,28.08-.09,51.42-.12,67.75,0,8.13,0,14.51-.06,18.88,0,2.16,0,3.82,0,4.95S576,199,576,199Z" style="fill:#e0e0e0"></path><path d="M511.76,122.3c0,.15-5.49.28-12.26.28s-12.25-.13-12.25-.28,5.48-.28,12.25-.28S511.76,122.15,511.76,122.3Z" style="fill:#e0e0e0"></path><path d="M555.93,129.3c0,.16-15.08.28-33.67.28s-33.66-.12-33.66-.28,15.07-.28,33.66-.28S555.93,129.15,555.93,129.3Z" style="fill:#e0e0e0"></path><rect x="487.43" y="141.16" width="4.39" height="4.39" style="fill:#e0e0e0"></rect><rect x="498.24" y="141.16" width="4.39" height="4.39" style="fill:#e0e0e0"></rect><rect x="509.25" y="140.96" width="4.39" height="4.39" style="fill:#e0e0e0"></rect><rect x="519.86" y="141.16" width="4.39" height="4.39" style="fill:#e0e0e0"></rect><rect x="530.67" y="141.16" width="4.39" height="4.39" style="fill:#e0e0e0"></rect><rect x="541.48" y="141.16" width="4.39" height="4.39" style="fill:#e0e0e0"></rect><rect x="552.29" y="141.16" width="4.39" height="4.39" style="fill:#ebebeb"></rect><rect x="487.43" y="150.5" width="4.39" height="4.39" style="fill:#ebebeb"></rect><rect x="498.24" y="150.5" width="4.39" height="4.39" style="fill:#e0e0e0"></rect><rect x="509.05" y="150.5" width="4.39" height="4.39" style="fill:#ebebeb"></rect><rect x="519.86" y="150.5" width="4.39" height="4.39" style="fill:#e0e0e0"></rect><rect x="530.67" y="150.5" width="4.39" height="4.39" style="fill:#e0e0e0"></rect><rect x="541.68" y="150.3" width="4.39" height="4.39" style="fill:#e0e0e0"></rect><rect x="552.29" y="150.5" width="4.39" height="4.39" style="fill:#e0e0e0"></rect><rect x="487.43" y="159.84" width="4.39" height="4.39" style="fill:#e0e0e0"></rect><rect x="498.44" y="159.64" width="4.39" height="4.39" style="fill:#e0e0e0"></rect><rect x="509.05" y="159.84" width="4.39" height="4.39" style="fill:#e0e0e0"></rect><rect x="519.86" y="159.84" width="4.39" height="4.39" style="fill:#ebebeb"></rect><rect x="530.67" y="159.84" width="4.39" height="4.39" style="fill:#e0e0e0"></rect><rect x="541.48" y="159.84" width="4.39" height="4.39" style="fill:#e0e0e0"></rect><rect x="552.29" y="159.84" width="4.39" height="4.39" style="fill:#e0e0e0"></rect><rect x="487.43" y="169.17" width="4.39" height="4.39" style="fill:#e0e0e0"></rect><rect x="498.24" y="169.17" width="4.39" height="4.39" style="fill:#e0e0e0"></rect><rect x="509.05" y="169.17" width="4.39" height="4.39" style="fill:#e0e0e0"></rect><rect x="520.06" y="168.97" width="4.39" height="4.39" style="fill:#e0e0e0"></rect><rect x="530.67" y="169.17" width="4.39" height="4.39" style="fill:#e0e0e0"></rect><rect x="541.48" y="169.17" width="4.39" height="4.39" style="fill:#ebebeb"></rect><rect x="552.29" y="169.17" width="4.39" height="4.39" style="fill:#e0e0e0"></rect><rect x="487.43" y="178.51" width="4.39" height="4.39" style="fill:#e0e0e0"></rect><rect x="498.24" y="178.51" width="4.39" height="4.39" style="fill:#ebebeb"></rect><rect x="509.05" y="178.51" width="4.39" height="4.39" style="fill:#e0e0e0"></rect><rect x="519.86" y="178.51" width="4.39" height="4.39" style="fill:#e0e0e0"></rect><rect x="530.67" y="178.51" width="4.39" height="4.39" style="fill:#e0e0e0"></rect><rect x="541.68" y="178.31" width="4.39" height="4.39" style="fill:#e0e0e0"></rect><rect x="552.29" y="178.51" width="4.39" height="4.39" style="fill:#e0e0e0"></rect><rect x="627.88" y="71.36" width="87.31" height="144.52" style="fill:#e0e0e0"></rect><rect x="624.98" y="71.36" width="87.31" height="144.52" style="fill:#ebebeb"></rect><rect x="628.7" y="74.29" width="79.87" height="138.66" style="fill:#fafafa"></rect><rect x="643.9" y="92.31" width="49.11" height="102.62" style="fill:#ebebeb"></rect><path d="M643.9,158.62c-.11-9.59,8.51-19,18-20.29,4.53-.63,9.34.26,13.57-1.47,7.55-3.1,9.95-13.13,17.55-16.1l.34,74.17H643.9Z" style="fill:#e0e0e0"></path><polygon points="85.95 360.01 85.95 385.21 122.8 385.21 163.44 385.21 163.44 360.01 85.95 360.01" style="fill:#f5f5f5"></polygon><polygon points="82.7 352.97 82.7 360.01 166.14 360.01 166.14 352.97 122.8 352.97 82.7 352.97" style="fill:#e0e0e0"></polygon><polygon points="124.42 385.21 163.44 385.21 163.44 360.01 166.14 360.01 166.14 352.97 122.8 352.97 122.8 359.36 124.42 385.21" style="fill:#e0e0e0"></polygon><rect x="96.79" y="364.07" width="15.71" height="3.79" style="fill:#e0e0e0"></rect><rect x="94.77" y="372.61" width="20.18" height="8.01" style="fill:#fff"></rect><path d="M175.07,439.37,173.45,94.3h-6.68v68H149.51l-.32-68h-6.68v68H83.14l-.32-68H76.14v68H58.93l-.32-68H51.93V439.37h8.31L60,393.06H76.14v46.31h8.31l-.22-46.31h58.28v46.31h8.31l-.22-46.31h16.17v46.31Zm-107.43-92-6-25.57H73.93Zm8.5-24v60.42l-7.23-31Zm0-87.82-7.23-31,7.23-29.43Zm-1.3,5.55H59.93l7.65-31.13Zm-7.2-42L60.8,169.8h14Zm-1.33,5.41-7,28.68L59,173.08ZM59.7,324.38l6.61,28.36L60,378.62Zm7.88,33.78L74,385.51H60.85Zm-7.67-43.94,0-.24-.21,0-.31-65.44h16.8v65.63Zm23.64-65.63h59v65.63H83.86Zm74.19-38.67L165,241.05H150.09Zm-7.91,21.59-.26-56.6,6.9,29.59Zm16.94,6-7.7-33,7.7-31.33Zm0,3.44v.11h-.47Zm0,84.17v56.74l-6.8-29.1Zm-8.06,22.22-6-25.57H165Zm-.91-148.24L151,169.8h14Zm9,49.5v65.63H151l-.06-.24-.69.16-.31-65.55Zm-9.39,104.15-6.84,27.84-.28-58.34Zm1.26,5.42L165,385.51H151.92ZM142.51,169.8v71.25h-59l-.34-71.25ZM85.26,385.51H84.19l-.3-63.75h58.62v63.75Z" style="fill:#e0e0e0"></path><rect x="126.3" y="189.91" width="11.04" height="51.43" style="fill:#e0e0e0"></rect><path d="M134.22,229a2.19,2.19,0,1,1-2.18-2.19A2.19,2.19,0,0,1,134.22,229Z" style="fill:#fafafa"></path><rect x="130.25" y="203.54" width="3.38" height="21.02" style="fill:#fafafa"></rect><rect x="115.09" y="189.91" width="11.04" height="51.43" style="fill:#ebebeb"></rect><path d="M123,229a2.19,2.19,0,1,1-2.18-2.19A2.19,2.19,0,0,1,123,229Z" style="fill:#fafafa"></path><rect x="119.04" y="203.54" width="3.38" height="21.02" style="fill:#fafafa"></rect><rect x="104.41" y="189.91" width="11.04" height="51.43" style="fill:#f5f5f5"></rect><path d="M112.34,229a2.19,2.19,0,1,1-2.19-2.19A2.19,2.19,0,0,1,112.34,229Z" style="fill:#e0e0e0"></path><rect x="108.37" y="203.54" width="3.38" height="21.02" style="fill:#e0e0e0"></rect><polygon points="90.76 240.56 104.02 195.32 99.45 193.31 85.85 238.92 90.76 240.56" style="fill:#f5f5f5"></polygon><polygon points="71.12 314.21 71.12 306.43 126.12 306.43 126.3 314.21 71.12 314.21" style="fill:#f5f5f5"></polygon><path d="M126.15,307.7s-48.79.36-51.94,1.1c-.68.16-1.37,3.16,0,3.43s51.94.69,51.94.69Z" style="fill:#fff"></path><polygon points="77.51 306.12 77.51 298.33 121.08 298.33 121.22 306.12 77.51 306.12" style="fill:#ebebeb"></polygon><path d="M121.1,299.6S82.46,300,80,300.71c-.54.16-1.09,3.15,0,3.43s41.14.68,41.14.68Z" style="fill:#fafafa"></path><polygon points="77.31 298.43 77.31 290.64 120.88 290.64 121.02 298.43 77.31 298.43" style="fill:#e0e0e0"></polygon><path d="M120.91,291.91s-38.65.36-41.15,1.1c-.54.16-1.09,3.16,0,3.43s41.15.69,41.15.69Z" style="fill:#fafafa"></path><rect x="131.25" y="111.82" width="11.04" height="51.43" style="fill:#f5f5f5"></rect><path d="M139.17,150.91a2.19,2.19,0,1,1-2.18-2.18A2.18,2.18,0,0,1,139.17,150.91Z" style="fill:#e0e0e0"></path><rect x="135.21" y="125.45" width="3.38" height="21.02" style="fill:#e0e0e0"></rect><rect x="120.04" y="111.82" width="11.03" height="51.43" style="fill:#ebebeb"></rect><path d="M128,150.91a2.19,2.19,0,1,1-2.18-2.18A2.19,2.19,0,0,1,128,150.91Z" style="fill:#fafafa"></path><rect x="124" y="125.45" width="3.37" height="21.02" style="fill:#fafafa"></rect><rect x="109.36" y="111.82" width="11.04" height="51.43" style="fill:#e0e0e0"></rect><path d="M117.29,150.91a2.19,2.19,0,1,1-2.19-2.18A2.19,2.19,0,0,1,117.29,150.91Z" style="fill:#fafafa"></path><rect x="113.32" y="125.45" width="3.38" height="21.02" style="fill:#fafafa"></rect></g><g id="freepik--Floor--inject-21"><path d="M724.26,439c0,.15-154.14.26-344.24.26S35.74,439.11,35.74,439s154.11-.26,344.28-.26S724.26,438.82,724.26,439Z" style="fill:#263238"></path></g><g id="freepik--speech-bubbles--inject-21"><path d="M71.6,191.07l-5.11-9a24.1,24.1,0,1,0-5.77,6.42h0Z" style="fill:#fafafa"></path><path d="M71.6,191.07l-10.92-2.44a.14.14,0,0,1-.1-.16l0-.05h0l.19.18a24.18,24.18,0,0,1-11.58,4.91,21.89,21.89,0,0,1-3.83.2c-.65,0-1.32-.06-2-.11l-2-.31a24.37,24.37,0,0,1-19.21-19,24.8,24.8,0,0,1,.28-10.76,24,24,0,0,1,5.19-10,24.4,24.4,0,0,1,9.32-6.65,24.72,24.72,0,0,1,10.84-1.66,23.93,23.93,0,0,1,9.95,2.94A24.59,24.59,0,0,1,69.19,162.3a26.19,26.19,0,0,1,1,7.86,24,24,0,0,1-3.63,12V182l5,9.07c-.43-.75-2-3.38-5.22-8.94a.12.12,0,0,1,0-.13,24.05,24.05,0,0,0,3.48-11.85,26,26,0,0,0-1.07-7.73,24.23,24.23,0,0,0-11.31-13.83,23.2,23.2,0,0,0-9.75-2.86,24.18,24.18,0,0,0-10.62,1.64A23.84,23.84,0,0,0,28,153.89a23.44,23.44,0,0,0-5.08,9.73,24.26,24.26,0,0,0-.29,10.54,24,24,0,0,0,18.8,18.72l2,.31c.67.06,1.33.08,2,.12a21.23,21.23,0,0,0,3.77-.18,23.93,23.93,0,0,0,11.47-4.74.12.12,0,0,1,.18,0,.12.12,0,0,1,0,.16h0l-.07-.21Z" style="fill:#263238"></path><path d="M39.26,166.9c0-2.17,1.3-3.55,3.16-3.55s3.15,1.36,3.15,3.55-1.29,3.56-3.15,3.56S39.26,169.08,39.26,166.9Zm4.49,0c0-1.38-.53-2-1.33-2s-1.33.68-1.33,2,.55,2,1.33,2S43.75,168.29,43.75,166.9ZM50,163.49h2.16L43.48,176.4H41.31Zm-2.1,9.5c0-2.18,1.31-3.56,3.15-3.56s3.17,1.38,3.17,3.56-1.31,3.56-3.17,3.56S47.91,175.16,47.91,173Zm4.48,0c0-1.37-.53-2.05-1.33-2.05s-1.33.67-1.33,2.05.55,2,1.33,2S52.39,174.35,52.39,173Z" style="fill:#CFD8DC"></path><path d="M299.91,267.37l5.11-9a24.07,24.07,0,1,1,5.77,6.43h0Z" style="fill:#fafafa"></path><path d="M299.91,267.37l10.86-2.69-.07.21h0a.15.15,0,0,1,0-.19.15.15,0,0,1,.16,0,23.94,23.94,0,0,0,11.47,4.75,21.25,21.25,0,0,0,3.77.17c.65,0,1.31-.05,2-.11l2-.31a24.54,24.54,0,0,0,8-3.17,23.73,23.73,0,0,0,10.51-26.09,23.42,23.42,0,0,0-5.08-9.74,23.74,23.74,0,0,0-9.12-6.51A24.15,24.15,0,0,0,323.78,222,23.44,23.44,0,0,0,314,224.9a24.08,24.08,0,0,0-11.3,13.83,25.4,25.4,0,0,0-1.07,7.73,23.88,23.88,0,0,0,3.48,11.85.13.13,0,0,1,0,.12c-3.25,5.57-4.78,8.2-5.22,8.94.42-.75,1.89-3.42,5-9.06v.13a23.92,23.92,0,0,1-3.62-12,25.88,25.88,0,0,1,1-7.86,24.52,24.52,0,0,1,11.46-14.13,23.84,23.84,0,0,1,9.95-2.95,24.59,24.59,0,0,1,10.84,1.67,24.19,24.19,0,0,1,9.32,6.65,23.94,23.94,0,0,1,5.19,10,24.3,24.3,0,0,1-18.93,29.79l-2,.31c-.67.05-1.34.07-2,.1a21,21,0,0,1-3.83-.2,24,24,0,0,1-11.57-4.9l.18-.18h0a.13.13,0,0,1,0,.18l-.05,0Z" style="fill:#263238"></path><path d="M337.1,245.66l0,0-.07.07.11.1Z" style="fill:#263238"></path><polygon points="337.23 246.15 336.81 245.77 337.22 245.38 337.23 246.15" style="fill:#263238"></polygon><path d="M337.29,245.66c-1.58-1.46-3-2.77-4.06-3.71l-1.25-1.1a2.41,2.41,0,0,0-.49-.38,2.77,2.77,0,0,0,.41.46c.33.31.72.7,1.19,1.16,1,.95,2.37,2.25,3.9,3.68l.07-.07,0,0v.21l-.11-.1c-1.53,1.46-2.91,2.8-3.91,3.78l-1.18,1.19a3.36,3.36,0,0,0-.41.46,2.13,2.13,0,0,0,.48-.39l1.25-1.12c1-1,2.47-2.3,4-3.79l0,0,.1-.1Z" style="fill:#263238"></path><path d="M331.49,251.33a.15.15,0,0,1-.09,0c-.1-.11,0-.18.41-.64l1.19-1.19c1-1,2.34-2.29,3.81-3.69-1.44-1.34-2.79-2.61-3.8-3.59L331.82,241c-.45-.46-.52-.53-.42-.64s.17,0,.66.37l1.25,1.1c1.07,1,2.44,2.22,3.88,3.55l0,0v.05l.15.14.2.19-.23.23a.57.57,0,0,0-.11.11v.05l0,0c-1.45,1.39-2.83,2.69-3.89,3.66l-1.24,1.13C331.7,251.22,331.57,251.33,331.49,251.33Zm5.5-5.39-2.21,2.13L337,246Zm-2.17-2.38c.67.64,1.41,1.32,2.17,2h0Z" style="fill:#263238"></path><path d="M318.92,240.93a2.28,2.28,0,0,0,.41-.46,3.69,3.69,0,0,0-.48.39L317.6,242c-1,1-2.46,2.3-4,3.79l0,0-.11.1.11.1c1.57,1.46,3,2.77,4.06,3.71l1.25,1.1a3,3,0,0,0,.48.38,2.91,2.91,0,0,0-.41-.45l-1.19-1.17c-1-1-2.37-2.25-3.9-3.67l-.07.06,0,0v-.2l.11.1c1.54-1.47,2.92-2.81,3.91-3.79Z" style="fill:#263238"></path><path d="M319.34,251.33c-.09,0-.22-.11-.57-.41l-1.26-1.1c-1.05-.95-2.42-2.2-3.88-3.55l0,0v-.06l-.15-.14-.2-.19.24-.23.11-.1v-.06l0,0c1.46-1.39,2.83-2.68,3.89-3.66l1.24-1.13c.49-.43.56-.48.66-.38s.05.17-.41.64l-1.18,1.19c-1,1-2.37,2.31-3.82,3.7,1.47,1.35,2.81,2.62,3.81,3.58l1.19,1.17c.46.47.51.52.41.63S319.37,251.33,319.34,251.33Zm-5.52-5.23,2.18,2c-.67-.63-1.4-1.32-2.17-2Zm0-.38h0l2.21-2.12Z" style="fill:#263238"></path><path d="M313.73,246l0,0,.07-.06-.11-.1Z" style="fill:#263238"></path><polygon points="313.6 246.29 313.6 245.52 314.01 245.91 313.6 246.29" style="fill:#263238"></polygon><path d="M322.45,253.73c.07,0,1.46-3.52,3.11-7.92s2.92-8,2.85-8-1.46,3.51-3.11,7.91S322.38,253.7,322.45,253.73Z" style="fill:#263238"></path><path d="M322.46,253.86h0c-.14-.06-.25-.1,2.78-8.18,1.1-2.95,3-7.9,3.17-8l0,0,.06,0c.14,0,.24.09-2.78,8.17-.8,2.13-1.56,4.12-2.15,5.62C322.7,253.58,322.58,253.86,322.46,253.86Zm4.22-11.44c-.38,1-.8,2.11-1.26,3.34l-1.24,3.34c.38-1,.8-2.1,1.26-3.33S326.32,243.41,326.68,242.42Z" style="fill:#263238"></path><path d="M391.05,176.82l-5.1-9a24.14,24.14,0,1,0-5.78,6.42h0Z" style="fill:#fafafa"></path><path d="M391.05,176.82l-10.92-2.44a.13.13,0,0,1-.09-.15.14.14,0,0,1,0-.06h0l.18.19a24,24,0,0,1-11.58,4.9,21.72,21.72,0,0,1-3.82.2c-.66,0-1.33,0-2-.11l-2-.31a24.22,24.22,0,0,1-18.92-29.78,23.75,23.75,0,0,1,5.18-9.95,24.4,24.4,0,0,1,9.32-6.66A24.79,24.79,0,0,1,367.23,131a23.84,23.84,0,0,1,9.95,3,24.48,24.48,0,0,1,7.35,6.28,24.75,24.75,0,0,1,4.11,7.84,26.27,26.27,0,0,1,1,7.86,24,24,0,0,1-3.63,12v-.12c3.11,5.64,4.58,8.3,5,9.06-.43-.75-2-3.38-5.21-8.94a.15.15,0,0,1,0-.13,23.85,23.85,0,0,0,3.48-11.85,25.75,25.75,0,0,0-1.07-7.73A24.16,24.16,0,0,0,377,134.34a23.58,23.58,0,0,0-9.76-2.86,24.12,24.12,0,0,0-10.61,1.64,23.69,23.69,0,0,0-9.12,6.52,23.32,23.32,0,0,0-5.08,9.73,24.26,24.26,0,0,0-.29,10.54,24,24,0,0,0,18.79,18.72l2,.31c.66.06,1.32.08,2,.12a21.29,21.29,0,0,0,3.77-.17,24,24,0,0,0,11.46-4.75.15.15,0,0,1,.19,0,.15.15,0,0,1,0,.16h0l-.08-.2Z" style="fill:#263238"></path><polygon points="365.04 150.69 368.68 149.48 372.32 148.28 371.55 152.03 370.77 155.79 368.79 154.03 360.26 163.61 358.49 162.03 367.02 152.45 365.04 150.69" style="fill:#263238"></polygon><path d="M567.08,198.53l5.11-9A24.18,24.18,0,1,1,578,196v0Z" style="fill:#fafafa"></path><path d="M567.08,198.53l10.86-2.69-.07.2h0a.13.13,0,0,1,0-.18.15.15,0,0,1,.16,0,23.86,23.86,0,0,0,11.46,4.75,21.25,21.25,0,0,0,3.77.17c.65,0,1.31-.06,2-.11l2-.32a23.79,23.79,0,0,0,18.5-29.26,23.32,23.32,0,0,0-5.08-9.73,23.8,23.8,0,0,0-9.12-6.52A24.28,24.28,0,0,0,591,153.19a23.44,23.44,0,0,0-9.76,2.87,24.08,24.08,0,0,0-11.3,13.83,25.67,25.67,0,0,0-1.07,7.73,23.88,23.88,0,0,0,3.48,11.85.13.13,0,0,1,0,.12c-3.25,5.57-4.78,8.2-5.22,8.94.42-.75,1.89-3.42,5-9.06v.13a24.12,24.12,0,0,1-3.62-12,26.19,26.19,0,0,1,1-7.86A24.44,24.44,0,0,1,581,155.64a23.84,23.84,0,0,1,9.95-2.95,24.59,24.59,0,0,1,10.84,1.67,24.22,24.22,0,0,1,9.33,6.65,23.75,23.75,0,0,1,5.18,10,24.64,24.64,0,0,1,.28,10.76,24.39,24.39,0,0,1-11.06,15.84,24.68,24.68,0,0,1-8.14,3.19l-2.05.3c-.67.06-1.34.07-2,.11a21.72,21.72,0,0,1-3.82-.2,24,24,0,0,1-11.58-4.9l.18-.18h0a.14.14,0,0,1,0,.18l-.06,0Z" style="fill:#263238"></path><path d="M588.24,174.87h1.38l3-4.22v-2.77s2.14-.13,1.89,3.5,0,2.7,0,2.7,4.56,0,4.93.41.4,4.81.45,7.27a2.65,2.65,0,0,1-1.88,2.67,2.07,2.07,0,0,1-.49.07c-1.14,0-6.94-.93-6.94-.93h-2.39Z" style="fill:#263238"></path><polygon points="584.26 174.11 585.12 183.6 587.49 183.6 587.49 174.3 584.26 174.11" style="fill:#263238"></polygon></g><g id="freepik--character-3--inject-21"><rect x="261" y="377.01" width="4.04" height="61.95" style="fill:#263238"></rect><rect x="311.62" y="377.01" width="4.04" height="61.95" style="fill:#263238"></rect><rect x="259.31" y="370.23" width="59.09" height="7.8" style="fill:#455a64"></rect><rect x="249.68" y="303.36" width="8.96" height="73.27" transform="matrix(0.97, -0.26, 0.26, 0.97, -79.31, 77.34)" style="fill:#455a64"></rect><path d="M326.7,400.55,310.42,419l22.8,20.36c1.81-2.3-6.08-17.2-6.08-17.2l10.91-11.37Z" style="fill:#CFD8DC"></path><path d="M321,414.83a1.26,1.26,0,0,0-1.6.49,1.2,1.2,0,0,0,.47,1.58,1.33,1.33,0,0,0,1.69-.52,1.26,1.26,0,0,0-.67-1.6" style="fill:#263238"></path><path d="M310.49,418.88l1.63-1.87,21.17,20.42s.61,1.36-.14,2Z" style="fill:#263238"></path><path d="M327.62,422.33c-.11.11-.71-.34-1.58-.47s-1.57.08-1.64-.06.68-.63,1.73-.45S327.73,422.25,327.62,422.33Z" style="fill:#263238"></path><path d="M329.12,425.46c-.07.13-.72-.12-1.52,0s-1.35.53-1.46.43.39-.8,1.38-1S329.22,425.35,329.12,425.46Z" style="fill:#263238"></path><path d="M327.92,429.53c-.12-.07.22-.76,1.05-1.11s1.57-.14,1.54,0-.65.17-1.33.47S328.05,429.62,327.92,429.53Z" style="fill:#263238"></path><path d="M329.82,419.46c-.14.06-.52-.55-1.18-1.06s-1.34-.76-1.31-.91.85-.12,1.63.5S330,419.43,329.82,419.46Z" style="fill:#263238"></path><path d="M331.69,416.27c0,.05-.54-.27-1.14-1a7.2,7.2,0,0,1-.86-1.43,8,8,0,0,1-.35-.94,1.83,1.83,0,0,1-.1-.58.64.64,0,0,1,.47-.63.84.84,0,0,1,.72.18,1.8,1.8,0,0,1,.37.44,5.62,5.62,0,0,1,.5.88,5.14,5.14,0,0,1,.43,1.63,2.71,2.71,0,0,1-.15,1.53c-.09,0,0-.59-.21-1.48a6.21,6.21,0,0,0-.51-1.48,6.56,6.56,0,0,0-.47-.79c-.19-.28-.39-.46-.55-.41s-.07,0-.09.15a2,2,0,0,0,.08.42,8.59,8.59,0,0,0,1,2.3A13,13,0,0,1,331.69,416.27Z" style="fill:#263238"></path><path d="M331.4,416.31a2.47,2.47,0,0,1,.69-1.38,5.08,5.08,0,0,1,1.27-1.11,5.47,5.47,0,0,1,.91-.43,1.26,1.26,0,0,1,1.24.07.73.73,0,0,1,.19.75,1.94,1.94,0,0,1-.25.52,3.68,3.68,0,0,1-.69.77,3.41,3.41,0,0,1-1.54.74c-1,.2-1.56-.08-1.53-.13a13.85,13.85,0,0,0,1.44-.22,3.56,3.56,0,0,0,1.32-.75,3.17,3.17,0,0,0,.57-.68c.18-.27.26-.55.15-.61a.9.9,0,0,0-.74,0,4.85,4.85,0,0,0-.83.37,5.29,5.29,0,0,0-1.24.94C331.73,415.82,331.48,416.34,331.4,416.31Z" style="fill:#263238"></path><path d="M355.05,413.36l-.35,25.25,31.41.6c-.12-3-16.26-9.34-16.26-9.34l.89-16.17Z" style="fill:#CFD8DC"></path><path d="M360.16,428.32a1.3,1.3,0,0,0-.92,1.45,1.24,1.24,0,0,0,1.43.92,1.36,1.36,0,0,0,1-1.54,1.28,1.28,0,0,0-1.59-.79" style="fill:#263238"></path><path d="M354.7,438.51l0-2.55,30.19,1.72s1.38.65,1.2,1.63Z" style="fill:#263238"></path><path d="M370.36,429.72c0,.15-.78.21-1.54.68s-1.18,1.12-1.32,1.06.11-.95,1-1.51S370.4,429.58,370.36,429.72Z" style="fill:#263238"></path><path d="M373.63,431.14c0,.15-.64.4-1.17,1s-.7,1.32-.85,1.31-.23-.88.44-1.66S373.63,431,373.63,431.14Z" style="fill:#263238"></path><path d="M375.43,435.12c-.14,0-.34-.74.07-1.57s1.13-1.15,1.19-1-.39.57-.71,1.26S375.58,435.11,375.43,435.12Z" style="fill:#263238"></path><path d="M370.15,426c-.06.14-.76-.09-1.63,0s-1.55.3-1.63.17.59-.67,1.61-.71S370.23,425.89,370.15,426Z" style="fill:#263238"></path><path d="M369.48,422.27a3,3,0,0,1-1.58,0,6.74,6.74,0,0,1-1.63-.54,6.65,6.65,0,0,1-.9-.49,2.45,2.45,0,0,1-.47-.38.68.68,0,0,1,0-.82.84.84,0,0,1,.68-.34,2,2,0,0,1,.59.1,5.45,5.45,0,0,1,2.4,1.33c.72.69,1,1.27.9,1.29s-.41-.43-1.14-1a6.46,6.46,0,0,0-1.39-.82,5.94,5.94,0,0,0-.9-.3c-.33-.09-.61-.1-.7.05s0,.08,0,.17a1.24,1.24,0,0,0,.34.28,8,8,0,0,0,.82.49,9,9,0,0,0,1.51.61A11.49,11.49,0,0,1,369.48,422.27Z" style="fill:#263238"></path><path d="M369.27,422.48a2.46,2.46,0,0,1-.38-1.52,5,5,0,0,1,.24-1.72,5.63,5.63,0,0,1,.42-.95,1.29,1.29,0,0,1,1-.77.72.72,0,0,1,.65.45,1.91,1.91,0,0,1,.15.58,3.41,3.41,0,0,1,0,1.06,3.62,3.62,0,0,1-.7,1.61c-.63.8-1.27,1-1.29.92s.49-.36,1-1.14a3.7,3.7,0,0,0,.53-1.47,3.49,3.49,0,0,0,0-.91c0-.33-.16-.6-.29-.57s-.42.24-.56.5a5.43,5.43,0,0,0-.4.85,6,6,0,0,0-.34,1.56C369.2,421.89,369.36,422.46,369.27,422.48Z" style="fill:#263238"></path><path d="M261.57,264l6,10.38,8.34,8.33,4.9-6.73,0-6.78,0-5.68s7.55-1,7.77-8.57c.11-3.63-.28-11.13-.71-17.92a14,14,0,0,0-13.76-13.14h-.73c-7.84.32-13,7.12-12.45,14.94l.56,25.18" style="fill:#ffbe9d"></path><path d="M285.73,242a1.06,1.06,0,0,1-1.05,1.06,1,1,0,0,1-1.09-1,1.07,1.07,0,0,1,1.05-1.07A1,1,0,0,1,285.73,242Z" style="fill:#263238"></path><path d="M286.39,240.3c-.14.14-.94-.48-2.1-.49s-2,.54-2.14.4.08-.32.46-.58a2.92,2.92,0,0,1,1.71-.49,2.87,2.87,0,0,1,1.67.56C286.34,240,286.45,240.24,286.39,240.3Z" style="fill:#263238"></path><path d="M274.9,242a1.06,1.06,0,0,1-1,1.06,1,1,0,0,1-1.1-1,1.08,1.08,0,0,1,1.06-1.07A1,1,0,0,1,274.9,242Z" style="fill:#263238"></path><path d="M274.87,239.78c-.12.15-1-.38-2.14-.27s-1.94.77-2.08.64,0-.33.39-.63a3,3,0,0,1,1.65-.68,2.82,2.82,0,0,1,1.71.39C274.78,239.47,274.93,239.71,274.87,239.78Z" style="fill:#263238"></path><path d="M279,249.37a7.21,7.21,0,0,1,1.88-.31c.3,0,.58-.08.63-.28a1.6,1.6,0,0,0-.18-.88l-.84-2.26a38.79,38.79,0,0,1-1.86-5.92,37.73,37.73,0,0,1,2.33,5.75c.28.8.55,1.55.8,2.28a1.73,1.73,0,0,1,.14,1.16.74.74,0,0,1-.5.42,1.93,1.93,0,0,1-.5.07A8,8,0,0,1,279,249.37Z" style="fill:#263238"></path><path d="M275.53,250.11c.19,0,.17,1.25,1.23,2.15s2.39.8,2.4,1-.3.24-.87.25a3.08,3.08,0,0,1-2-.74,2.69,2.69,0,0,1-1-1.81C275.3,250.41,275.44,250.1,275.53,250.11Z" style="fill:#263238"></path><path d="M274.79,236c-.09.32-1.25.25-2.6.5s-2.41.7-2.61.43.08-.44.5-.77a4.55,4.55,0,0,1,4-.71C274.56,235.59,274.83,235.82,274.79,236Z" style="fill:#263238"></path><path d="M285.9,237.34c-.21.26-1,0-2-.06s-1.77.15-1.95-.13c-.08-.13.05-.39.41-.64a2.85,2.85,0,0,1,3.15.15C285.89,236.94,286,237.21,285.9,237.34Z" style="fill:#263238"></path><path d="M265.37,227.19c-.36-.2-1.9,1.51-2.2,1.8-1.74,1.67-2.38,4.71-2.51,7.12A26,26,0,0,0,261,243c.06.3.27,1.53.27,1.53.33.27.77,2.94,1.2,3,.6,0,1-4.1,1.12-4.42a19,19,0,0,1,.4-2.78,26.12,26.12,0,0,0,.69-4.47c0-2.1.69-5.23.71-7.32C265.38,228.1,265.72,227.37,265.37,227.19Z" style="fill:#263238"></path><path d="M263.82,230.33a15.28,15.28,0,0,1,9.1-6,4,4,0,0,1,2.5.08,7.61,7.61,0,0,1,1.24.89,2,2,0,0,0,1.4.48.91.91,0,0,0,.8-1.07,13.19,13.19,0,0,0-16.21,5.54" style="fill:#263238"></path><path d="M265.28,230l-4.23,3.31a17.91,17.91,0,0,0-.37,2.46l4.23-2.8Z" style="fill:#e0e0e0"></path><path d="M262.37,244.38c-.13-.06-5.14-1.62-5.07,3.53s5.23,4,5.24,3.86S262.37,244.38,262.37,244.38Z" style="fill:#ffbe9d"></path><path d="M260.94,249.84s-.09.06-.24.14a.88.88,0,0,1-.67,0,2.22,2.22,0,0,1-1.06-2,3,3,0,0,1,.23-1.28,1.06,1.06,0,0,1,.67-.7.44.44,0,0,1,.53.24c.07.14,0,.24.07.25s.11-.09.06-.3a.57.57,0,0,0-.2-.32.65.65,0,0,0-.5-.12,1.25,1.25,0,0,0-.93.81,3,3,0,0,0-.29,1.44,2.33,2.33,0,0,0,1.34,2.2.93.93,0,0,0,.82-.15C260.93,250,261,249.85,260.94,249.84Z" style="fill:#eb996e"></path><path d="M281,263.42a18.11,18.11,0,0,1-10.09-3.06s2.24,5.72,10,5.16Z" style="fill:#eb996e"></path><path d="M265.64,351.56s2.38,15,4.15,18.5,27.91.4,27.91.4l56.94,1.5L354,426.31l20.48.54,1.4-65.1c0-7-2.46-11.94-8.28-13.76-9.05-2.84-21.52-4-25.53-4.5-6.1-.79-29.22-1.7-29.22-1.7L311.08,339Z" style="fill:#263238"></path><path d="M370.28,374.38l-33.79,46.81-17.95-14L342.28,377l-52.22-14.23,2.09-17.92,15.32,1s48.85,6.1,55.18,8.07c.43.13.88.29,1.33.46A13.41,13.41,0,0,1,370.28,374.38Z" style="fill:#263238"></path><path d="M335.16,343c0,.15-6.58,0-14.68-.33s-14.66-.71-14.66-.86,6.58,0,14.68.34S335.16,342.84,335.16,343Z" style="fill:#455a64"></path><path d="M354,426.31a.6.6,0,0,1,0-.23c0-.19,0-.42,0-.7,0-.65,0-1.53,0-2.65,0-2.36,0-5.68,0-9.77.09-8.29.21-19.66.33-32.22,0-3,.08-5.95.12-8.79l.23.26c-10.44-.87-19.63-1.27-26.2-1.46l-7.73-.19-2.07-.05a3.94,3.94,0,0,1-.72-.05,4.9,4.9,0,0,1,.72,0l2.07,0c1.82,0,4.45,0,7.74,0,6.57.1,15.78.43,26.24,1.28l.23,0V372c0,2.83-.07,5.78-.11,8.79-.18,12.56-.35,23.93-.48,32.22-.08,4.08-.15,7.41-.2,9.76l-.09,2.66q0,.41,0,.69A.72.72,0,0,1,354,426.31Z" style="fill:#455a64"></path><path d="M369.29,325.7c.72-1.05,8.74-43.21,8.74-43.21h-1.7l-8.45,40.38h-41v3Z" style="fill:#263238"></path><path d="M341.61,313.3a16.24,16.24,0,0,1,3.29-3.14c.46-.15,8.72-3.59,8.87-3.21s1.15,2.27-.54,3.16l-1.3.44,4.75.38s5.27,3.9,5.19,4.74-.76,1.37-1.22,1,1.23,2.68,1.23,2.68,0,1.3-.69,1.07a6.36,6.36,0,0,1-1.76-1.45s1,1.6.69,1.91-1.84.38-2,0-.38-1.07-.38-1.07l-.92.07v1.26l-15.93,1.11Z" style="fill:#eb996e"></path><path d="M280.79,273.49c0,1.38,28.32,37.14,28.32,37.14S342,311.81,342,312.4s-2.16,9.25-2.16,9.25l-40.16.7L268.81,287.2Z" style="fill:#e0e0e0"></path><path d="M260.57,267.38s-12.78,9.45-14.58,19.14S261,332,261,332l3,18.2a1.63,1.63,0,0,0,2.17,1.27L311.65,339c.85-.31-.34-4.83-.71-5.65C305,320.1,300,308.57,289.32,298.05l-8.35-27-20-7.28Z" style="fill:#ebebeb"></path><path d="M248.34,290s4.33,12.6,5.12,14.17c.61,1.23,21.38,19.36,30.36,27.17a11.08,11.08,0,0,0,9.37,2.51l43.52-8.44L336,314.11l-40.79.65-17.52-26s-1.77-7.48-6.49-10.43-15.94-.79-18.5,2.95A44.66,44.66,0,0,0,248.34,290Z" style="fill:#ebebeb"></path><path d="M295.18,314.76a13.77,13.77,0,0,0-2.17,3.7,26,26,0,0,0-.84,4.24,7.19,7.19,0,0,1,.34-4.42,7.91,7.91,0,0,1,1.62-2.73C294.69,315,295.15,314.71,295.18,314.76Z" style="fill:#263238"></path><path d="M268.81,277.39a3.08,3.08,0,0,1,1.08.23,7.58,7.58,0,0,1,2.62,1.88c2,2.07,4.17,5.66,6.19,10.57l0,0,16.68,24.6-.18-.1,40.79-.43h.25v.24c.24,3.51.49,7.23.74,11v.22l-.21.05c-1.63.4-3.39.75-5.16,1.12-14,2.84-27.36,5.26-39.49,7.88a7.4,7.4,0,0,1-4.53-1A28.91,28.91,0,0,1,284,331l-6.68-5.3-12-9.52c-3.62-2.94-7.13-5.4-9.49-8.34a27.59,27.59,0,0,1-4.46-8.42c-.86-2.48-1.36-4.45-1.7-5.79-.15-.65-.28-1.16-.36-1.52s-.11-.52-.11-.52.06.17.16.51l.42,1.51c.37,1.32.89,3.29,1.78,5.74a28,28,0,0,0,4.49,8.3c2.35,2.88,5.86,5.31,9.5,8.24l12,9.47,6.69,5.28a29.38,29.38,0,0,0,3.59,2.58,7,7,0,0,0,4.25,1c12-2.64,25.46-5.08,39.44-7.92,1.76-.37,3.52-.72,5.14-1.12l-.2.27c-.25-3.77-.5-7.49-.73-11l.26.24-40.8.35h-.11l-.07-.1c-6.65-9.92-12.31-18.37-16.55-24.68v0h0c-2-4.89-4.13-8.5-6-10.56a7.71,7.71,0,0,0-2.54-1.92A6.85,6.85,0,0,0,268.81,277.39Z" style="fill:#263238"></path><polygon points="281.22 273.49 281.29 272.15 283.79 276.97 283.79 280.62 281.36 278.68 281.22 273.49" style="fill:#CFD8DC"></polygon><path d="M281.22,271.27a7.58,7.58,0,0,1,.09,1.51c0,1,0,2.34,0,4v.3l-.29-.12c-2.17-.9-4.92-2.07-7.9-3.36-3.58-1.55-6.81-3-9.14-4-1.17-.53-2.11-1-2.75-1.28a4.76,4.76,0,0,1-1-.54,5.21,5.21,0,0,1,1.06.35l2.81,1.13c2.37,1,5.62,2.35,9.21,3.9,3,1.29,5.71,2.5,7.86,3.47l-.29.18c.05-1.69.1-3.08.15-4A6.59,6.59,0,0,1,281.22,271.27Z" style="fill:#263238"></path><path d="M282.5,279.59c-.1.71,6.89,17.91,6.89,17.91s11.17,14.12,12.24,16.79h2.93l-14.77-17.71-6-17Z" style="fill:#CFD8DC"></path><path d="M361,319.77l-.17-1.68-6.74-4.4-8.28-1.4-6.37,4-3-.24.46,8,1,0a9.61,9.61,0,0,0,3.33.9c2.18.24,5.16-1.44,5.16-1.44l4-2.78,3-1.17,2.42,1.1a8.9,8.9,0,0,1,.35,1.19c0,.3.9.6,1.36.56s.5-1.13.5-1.13l-.76-2.23,1.16.88Z" style="fill:#ffbe9d"></path></g><g id="freepik--Desk--inject-21"><rect x="349.38" y="330.35" width="6.77" height="108.52" style="fill:#e0e0e0"></rect><path d="M356.15,438.87s0-.2,0-.57,0-.94,0-1.64c0-1.46,0-3.57,0-6.29,0-5.47-.05-13.36-.08-23.14,0-19.54-.06-46.63-.11-76.88l.26.26h-6.77l.26-.26c0,50.47-.07,93.36-.18,108.52l-.08-.09,5.07.05,1.27,0,.43,0-.4,0-1.25,0-5.12,0h-.08v-.09c-.1-15.16-.17-58.05-.17-108.52v-.26h7.29v.26c0,30.32-.08,57.48-.11,77.08,0,9.75-.06,17.62-.07,23.07,0,2.69,0,4.79,0,6.23l0,1.61C356.17,438.69,356.15,438.87,356.15,438.87Z" style="fill:#263238"></path><rect x="453.62" y="330.44" width="6.77" height="108.52" style="fill:#e0e0e0"></rect><path d="M460.39,439s0-.2,0-.57l0-1.64c0-1.46,0-3.57,0-6.29,0-5.46-.05-13.36-.08-23.13,0-19.55-.07-46.64-.11-76.89l.26.26h-6.77l.26-.26c0,50.47-.08,93.36-.18,108.52l-.08-.08,5.07.05,1.27,0h.43l-.4,0-1.26,0-5.11.05h-.09V439c-.1-15.16-.17-58-.17-108.52v-.26h7.29v.26c0,30.32-.08,57.48-.11,77.08,0,9.75-.06,17.62-.08,23.07,0,2.69,0,4.79,0,6.23,0,.69,0,1.23,0,1.61S460.39,439,460.39,439Z" style="fill:#263238"></path><rect x="311.73" y="325.59" width="183.16" height="6.61" style="fill:#455a64"></rect></g><g id="freepik--character-5--inject-21"><rect x="563.68" y="377.01" width="4.04" height="61.95" transform="translate(1131.41 815.98) rotate(180)" style="fill:#263238"></rect><rect x="513.06" y="377.01" width="4.04" height="61.95" transform="translate(1030.17 815.98) rotate(180)" style="fill:#263238"></rect><rect x="510.33" y="370.23" width="59.09" height="7.8" transform="translate(1079.74 748.25) rotate(180)" style="fill:#455a64"></rect><polygon points="560.76 374.22 569.41 378.03 588.38 305.76 579.72 303.44 560.76 374.22" style="fill:#455a64"></polygon><path d="M587.63,248.29a2.37,2.37,0,0,0-.49-1.18,5.61,5.61,0,0,0-3.48-2.25,10,10,0,0,0,3.18-2.2,3.82,3.82,0,0,0,.92-3.61,4.53,4.53,0,0,0-2.79-2.46,8,8,0,0,0-5.22-.37,5.5,5.5,0,0,0-3.73,3.5l1.65,4.28a9.46,9.46,0,0,0,1.93,4.65,2.13,2.13,0,0,0,1.93,1.06,1.61,1.61,0,0,0,1.14-1.46,4.84,4.84,0,0,0-.36-1.94,9,9,0,0,0,3.31,2.9,1.66,1.66,0,0,0,1.47.19A1.16,1.16,0,0,0,587.63,248.29Z" style="fill:#263238"></path><path d="M578.6,242.41a9.71,9.71,0,0,0,2.31,1.85,9.48,9.48,0,0,0,2.91.54c0,.07-.31.23-.89.3a4.32,4.32,0,0,1-4-1.82C578.63,242.8,578.54,242.44,578.6,242.41Z" style="fill:#455a64"></path><path d="M588.3,239.49a14.88,14.88,0,0,1-1.61-.45,8.75,8.75,0,0,0-7.5,1.57,14.57,14.57,0,0,1-1.3,1.06,3.47,3.47,0,0,1,1.07-1.34,7.92,7.92,0,0,1,7.83-1.64A3.38,3.38,0,0,1,588.3,239.49Z" style="fill:#455a64"></path><path d="M578.13,243.57a2.7,2.7,0,0,0,0-1,7,7,0,0,0-1.49-3.8.79.79,0,0,0-.63-.31c-.38,0-.54.53-.48.91a4.5,4.5,0,0,1,.21,1.13l.65,2.76a1.37,1.37,0,0,0,.34.82.87.87,0,0,0,.83.27A1,1,0,0,0,578.13,243.57Z" style="fill:#CFD8DC"></path><path d="M575.56,262.85a55,55,0,0,0,2.72-9.19,19.45,19.45,0,0,0-.45-9.5c-.15-.46-1.49-3.56-2-3.52s.45,2.89.27,3.19a16.43,16.43,0,0,0-2.17,9.53,43.62,43.62,0,0,0,1.61,9.49" style="fill:#263238"></path><path d="M566.05,289.34a9.15,9.15,0,0,0,9.23-8.83l1-29.85c.53-8-3.7-15-11.72-15.3h-.75a14.37,14.37,0,0,0-14,13.5c-.41,6.94-.78,14.63-.66,18.35.26,7.7,8,8.73,8,8.73s0,1.79-.06,4.05a9.13,9.13,0,0,0,9,9.34Z" style="fill:#b78876"></path><path d="M557.09,276a18.55,18.55,0,0,0,10-3.17s-2.33,5.65-10,5.12Z" style="fill:#995037"></path><path d="M552,254.45a1.1,1.1,0,0,0,1.09,1.08,1.05,1.05,0,0,0,1.11-1,1.1,1.1,0,0,0-1.08-1.09A1.06,1.06,0,0,0,552,254.45Z" style="fill:#263238"></path><path d="M551.48,252c.14.14,1-.49,2.15-.52s2.06.56,2.19.41-.09-.32-.47-.59a3,3,0,0,0-1.76-.5,2.88,2.88,0,0,0-1.7.59C551.53,251.7,551.42,252,551.48,252Z" style="fill:#263238"></path><path d="M563.24,254.3a1.11,1.11,0,0,0,1.09,1.09,1.06,1.06,0,0,0,1.11-1,1.1,1.1,0,0,0-1.08-1.09A1.06,1.06,0,0,0,563.24,254.3Z" style="fill:#263238"></path><path d="M563.09,252.27c.14.14,1-.5,2.14-.52s2.07.56,2.19.41-.08-.32-.46-.59a3,3,0,0,0-1.76-.5,2.85,2.85,0,0,0-1.7.59C563.14,251.94,563,252.2,563.09,252.27Z" style="fill:#263238"></path><path d="M559,261.45a7.59,7.59,0,0,0-1.93-.31c-.3,0-.59-.07-.64-.28a1.5,1.5,0,0,1,.18-.9l.85-2.32a40.42,40.42,0,0,0,1.88-6.06,40.37,40.37,0,0,0-2.37,5.89q-.42,1.23-.81,2.34a1.81,1.81,0,0,0-.13,1.19.78.78,0,0,0,.51.43,2.5,2.5,0,0,0,.51.06A7.46,7.46,0,0,0,559,261.45Z" style="fill:#263238"></path><path d="M562.53,262.2c-.19,0-.17,1.28-1.25,2.21s-2.45.82-2.45,1,.31.25.88.25a3.2,3.2,0,0,0,2.06-.76,2.78,2.78,0,0,0,1-1.86C562.77,262.5,562.62,262.19,562.53,262.2Z" style="fill:#263238"></path><path d="M563.05,247.46c.13.32,1.31.15,2.7.28s2.52.5,2.7.21c.08-.14-.12-.44-.58-.75a4.49,4.49,0,0,0-2-.65,4.38,4.38,0,0,0-2.1.29C563.25,247.05,563,247.31,563.05,247.46Z" style="fill:#263238"></path><path d="M551.89,248.08c.22.27,1,0,2-.06s1.81.14,2-.14-.06-.41-.43-.65a2.69,2.69,0,0,0-1.64-.41,2.72,2.72,0,0,0-1.58.57C551.91,247.68,551.8,248,551.89,248.08Z" style="fill:#263238"></path><path d="M575.76,256.37c.13-.06,5.26-1.67,5.21,3.6s-5.34,4.12-5.35,4S575.76,256.37,575.76,256.37Z" style="fill:#b78876"></path><path d="M577.25,262s.09.07.25.14a.91.91,0,0,0,.68,0,2.28,2.28,0,0,0,1.08-2,3.11,3.11,0,0,0-.24-1.32,1.06,1.06,0,0,0-.69-.71.45.45,0,0,0-.54.24c-.07.15,0,.25-.07.26s-.11-.09-.07-.3a.64.64,0,0,1,.21-.33.73.73,0,0,1,.51-.13,1.27,1.27,0,0,1,1,.83,3.05,3.05,0,0,1,.31,1.47,2.38,2.38,0,0,1-1.37,2.26,1,1,0,0,1-.84-.15C577.26,262.09,577.23,262,577.25,262Z" style="fill:#995037"></path><path d="M553.36,240.21c-.85-.49,1.77-3.2,3.88-4.11,3.2-1.37,8-2.16,11-1.28,3.5,1.07,6.39,2.88,8.09,6.11a20.71,20.71,0,0,1,2.11,10.63,6.3,6.3,0,0,1-.8,3.21c-.76,1.15-2.19,1.85-2.16,3.46a2.22,2.22,0,0,1-.58,1.6c-1,1-2.14,0-2.67-1-1.11-2.09-1.19-4.55-1.25-6.92a15.51,15.51,0,0,1,.43-5c.28-.88.71-1.7.94-2.59a3.18,3.18,0,0,0-.32-2.63,3.94,3.94,0,0,0-.42-.45,5.5,5.5,0,0,0-5.43-1.14c-3,1-8.09,2.45-9.39,1.42a8.05,8.05,0,0,1-2.31-2.44Z" style="fill:#263238"></path><path d="M567.93,234.1a11.61,11.61,0,0,0-8.91.31,6,6,0,0,0-3.24,3.44,3.44,3.44,0,0,0,1.64,4.12l.1.07c2.24.8,3.7.53,6-.2,1.9-.61,3.6-1.75,5.5-2.35a10.64,10.64,0,0,1,6.27-.06A17.52,17.52,0,0,0,567.93,234.1Z" style="fill:#263238"></path><path d="M574.67,238.65a7.37,7.37,0,0,0-2.55-.55,7.25,7.25,0,0,0-2.75.56,21.65,21.65,0,0,0-3.12,1.61,23.27,23.27,0,0,1-3.17,1.68,8.18,8.18,0,0,1-2.9.63,3.78,3.78,0,0,1-2.6-.71,8,8,0,0,0,2.59.34,8.16,8.16,0,0,0,2.72-.7,28.58,28.58,0,0,0,3.1-1.69,18.89,18.89,0,0,1,3.21-1.61,7.35,7.35,0,0,1,2.93-.48A3.68,3.68,0,0,1,574.67,238.65Z" style="fill:#455a64"></path><path d="M572.48,236.88a8.59,8.59,0,0,0-2.36-.36,8,8,0,0,0-2.51.55,15.25,15.25,0,0,0-2.79,1.53c-1,.63-1.85,1.28-2.72,1.79a11.73,11.73,0,0,1-2.43,1.16,4.49,4.49,0,0,1-2.45.29,17.69,17.69,0,0,0,2.33-.64,27.39,27.39,0,0,0,5-3,14.45,14.45,0,0,1,2.91-1.55,7.44,7.44,0,0,1,2.68-.46A3.54,3.54,0,0,1,572.48,236.88Z" style="fill:#455a64"></path><path d="M577.83,243.7a9.88,9.88,0,0,1-6.87,7.38,15.33,15.33,0,0,0,6.87-7.38Z" style="fill:#455a64"></path><path d="M578.42,247.43a2.23,2.23,0,0,1-.27,1.43,5.85,5.85,0,0,1-2.37,2.57,11.27,11.27,0,0,1-3.24,1.26,3.63,3.63,0,0,1-1.41.2,4.4,4.4,0,0,1,1.31-.55,16.79,16.79,0,0,0,3.07-1.35,6.59,6.59,0,0,0,2.32-2.3C578.25,248,578.33,247.42,578.42,247.43Z" style="fill:#455a64"></path><path d="M560.18,235c.05.05-.24.4-.7.95a10.84,10.84,0,0,0-1.56,2.27,5.35,5.35,0,0,0-.55,2.61c0,.69.23,1.11.15,1.15s-.36-.35-.51-1.1a4.69,4.69,0,0,1,.44-2.89,7.89,7.89,0,0,1,1.76-2.29C559.75,235.17,560.13,234.92,560.18,235Z" style="fill:#455a64"></path><path d="M556.47,237.42a14.56,14.56,0,0,0,0,2.42,14.42,14.42,0,0,0,.91,2.25c-.07.12-1.12-.65-1.42-2.14A2.76,2.76,0,0,1,556.47,237.42Z" style="fill:#455a64"></path><path d="M451.15,414l-10.82,25.27L409.21,425.1c1.53-2.89,20.35-1.54,20.35-1.54l6.71-16.3Z" style="fill:#CFD8DC"></path><path d="M439.8,426.58a1.41,1.41,0,0,1,.22,1.85,1.35,1.35,0,0,1-1.84.24,1.48,1.48,0,0,1-.22-2,1.39,1.39,0,0,1,1.93,0" style="fill:#e0e0e0"></path><path d="M440.33,439.25l1.23-2.62-30.45-12.46s-1.66,0-1.94,1Z" style="fill:#e0e0e0"></path><path d="M429.13,423.17c-.07.15.66.57,1.19,1.4s.63,1.64.8,1.65.34-1-.32-2S429.16,423,429.13,423.17Z" style="fill:#e0e0e0"></path><path d="M425.25,423c-.1.14.44.69.66,1.57s.06,1.63.22,1.69.64-.75.34-1.84S425.32,422.89,425.25,423Z" style="fill:#e0e0e0"></path><path d="M421.62,426.1c.12.09.68-.57.67-1.58s-.58-1.66-.7-1.57.12.75.11,1.58S421.47,426,421.62,426.1Z" style="fill:#e0e0e0"></path><path d="M431.07,419.62c0,.17.79.28,1.62.73s1.38,1,1.52.93-.26-.93-1.25-1.45S431.05,419.47,431.07,419.62Z" style="fill:#e0e0e0"></path><path d="M433.49,416.27a3.23,3.23,0,0,0,1.56.7,8.17,8.17,0,0,0,1.86.24,8.59,8.59,0,0,0,1.11-.07,2.17,2.17,0,0,0,.64-.15.71.71,0,0,0,.43-.78.92.92,0,0,0-.5-.65,2.21,2.21,0,0,0-.62-.18,5.58,5.58,0,0,0-1.12-.11,6,6,0,0,0-1.87.29c-1,.34-1.53.8-1.49.85s.61-.24,1.6-.45a7.06,7.06,0,0,1,1.74-.16,7.3,7.3,0,0,1,1,.13c.37.07.65.19.67.38s0,.09-.11.16a2.18,2.18,0,0,1-.47.11,9.88,9.88,0,0,1-2.81,0A12,12,0,0,0,433.49,416.27Z" style="fill:#e0e0e0"></path><path d="M433.59,416.58s.59-.36,1.09-1.32a5.59,5.59,0,0,0,.57-1.81,5.9,5.9,0,0,0,0-1.12,1.41,1.41,0,0,0-.64-1.24.8.8,0,0,0-.85.14,2.37,2.37,0,0,0-.42.5,3.64,3.64,0,0,0-.47,1,3.81,3.81,0,0,0-.07,1.91c.24,1.08.79,1.55.83,1.51a14.16,14.16,0,0,1-.43-1.58,4,4,0,0,1,.18-1.69,3.51,3.51,0,0,1,.44-.89c.19-.3.44-.51.55-.42s.3.43.31.75a5.79,5.79,0,0,1,0,1,6.34,6.34,0,0,1-.4,1.7C433.94,416,433.51,416.52,433.59,416.58Z" style="fill:#e0e0e0"></path><path d="M427.82,386.76,450,329.85c3.23-6.58,7.54-9.09,15-7.12L524.78,336l36.37,25.83s-2.45,10.1-7.42,11.76c-1.36.45-81.36-.66-81.36-.66L450,420.55l-17-8.3L442.4,392Z" style="fill:#455a64"></path><path d="M518.37,346.24l-.26,0-.78.05-3,.14-11,.41-36.25,1.17-2.1.06.23-.16-12.88,32.4-3.93,9.73c-.46,1.12-.83,2-1.09,2.63-.12.28-.22.5-.29.68s-.11.23-.12.22,0-.08.07-.24l.24-.7c.25-.64.58-1.53,1-2.66.9-2.35,2.19-5.68,3.77-9.79,3.26-8.3,7.75-19.73,12.74-32.46l.06-.16H465l2.09-.06,36.26-1,11-.25,3,0h1Z" style="fill:#263238"></path><path d="M465,362.89a68.75,68.75,0,0,1,6.39,10A34.33,34.33,0,0,1,468,368,33.58,33.58,0,0,1,465,362.89Z" style="fill:#263238"></path><path d="M472.73,358.1a8.58,8.58,0,0,1,.38,2.15,42.38,42.38,0,0,1,.19,5.26,41.35,41.35,0,0,1-.45,5.25,8,8,0,0,1-.48,2.13c-.16,0,.32-3.31.41-7.39S472.57,358.11,472.73,358.1Z" style="fill:#263238"></path><path d="M520.67,335.14l15.4-16.63s3.82-14.91,5.69-19,15.1-19.39,15.1-19.39l18.09-6s11.19,16.68,10.07,30.25-23.87,57.4-23.87,57.4a16.36,16.36,0,0,1-5.3,1.09c-2.91,0-11.72-4-17.61-6.88a22.52,22.52,0,0,1-8.94-7.82Z" style="fill:#263238"></path><path d="M555.85,363c-2.86,0-11.18-3.75-17.66-6.89a22.66,22.66,0,0,1-9-7.87l-8.68-13.12.07-.07L536,318.45c.19-.76,3.88-15,5.69-19s14.58-18.8,15.12-19.42l0,0h0L575,274l0,.08c.12.17,11.2,16.87,10.09,30.33s-23.65,57-23.88,57.45l0,0,0,0A16.48,16.48,0,0,1,555.85,363Zm-35-27.85,8.57,12.95a22.38,22.38,0,0,0,8.9,7.78c5.28,2.56,14.59,6.87,17.55,6.87a16.08,16.08,0,0,0,5.21-1.07c.81-1.57,22.75-44.1,23.83-57.31,1.07-12.9-9.16-28.83-10-30.09l-18,5.93c-.62.71-13.27,15.37-15.07,19.33s-5.64,18.84-5.68,19l0,.06Z" style="fill:#263238"></path><path d="M529.76,348.88c3.27,2.72,19.19,3.18,26.75,1.67s5.88-3.89,7.75-8.89S571,318.05,571,306.1s-9.36-19.72-11.31-20.83-6.61,3.33-9.28,7.5-4,38.33-4,38.33l-25.67,4.76,2,11.29Z" style="fill:#263238"></path><path d="M545.61,351.51c-6.74,0-13.77-.78-15.9-2.52l-7.18-1.74,0-.08-2-11.41.12,0L546.22,331c.1-2.42,1.42-34.22,4-38.3s7.37-8.73,9.45-7.54c2.26,1.29,11.37,9.06,11.37,20.94,0,11.7-4.69,30.25-6.69,35.6a25.63,25.63,0,0,0-.9,3.12c-.69,2.92-1.1,4.68-7,5.85A61.26,61.26,0,0,1,545.61,351.51Zm-22.87-4.46,7.1,1.73c3.14,2.61,18.8,3.22,26.64,1.64,5.69-1.14,6.07-2.74,6.76-5.66a23.76,23.76,0,0,1,.91-3.15c2-5.33,6.67-23.85,6.67-35.51s-9-19.45-11.24-20.72c-1.8-1-6.37,3.17-9.12,7.46-2.62,4.09-4,37.93-4,38.27v.1h-.1L520.82,336Z" style="fill:#263238"></path><path d="M549.09,298.6s0,.2,0,.59-.07,1-.12,1.71c-.11,1.53-.28,3.73-.49,6.53-.46,5.68-1.11,13.8-1.91,23.69v.16l-.16,0-25.66,4.79.2-.29c.63,3.61,1.29,7.41,2,11.3l-.19-.21c3.5.91,7.18,1.87,11,2.62a57.5,57.5,0,0,0,16.25,1.26,27.93,27.93,0,0,0,7.55-1.57,9.78,9.78,0,0,0,5.41-4.65,31.23,31.23,0,0,0,2.11-6.73c.54-2.24,1.07-4.42,1.57-6.53,1-4.22,1.83-8.17,2.48-11.79a109.79,109.79,0,0,0,1.88-17.32c0-2.06,0-3.66,0-4.74q0-.78,0-1.23a2.35,2.35,0,0,1,0-.43,2,2,0,0,1,0,.42c0,.3.05.71.08,1.23.08,1.09.13,2.69.12,4.75a104.62,104.62,0,0,1-1.72,17.38c-.62,3.64-1.45,7.6-2.42,11.83q-.75,3.17-1.54,6.54a31.7,31.7,0,0,1-2.13,6.84,9.49,9.49,0,0,1-2.33,3,12.28,12.28,0,0,1-3.33,1.93,28.25,28.25,0,0,1-7.69,1.62A57.63,57.63,0,0,1,533.56,350c-3.8-.76-7.49-1.72-11-2.63l-.16,0,0-.16c-.67-3.89-1.33-7.69-2-11.3l0-.24.25-.05,25.68-4.71-.17.18c.87-9.88,1.58-18,2.08-23.67.26-2.8.47-5,.61-6.52.08-.73.13-1.3.18-1.71S549.09,298.6,549.09,298.6Z" style="fill:#455a64"></path><path d="M568.33,290.86c-.07.07-.79-.69-2.2-1.55a12.43,12.43,0,0,0-12.25-.49c-1.48.74-2.26,1.44-2.31,1.36s.14-.22.5-.53a10,10,0,0,1,1.63-1.16,11.9,11.9,0,0,1,12.63.51,10.15,10.15,0,0,1,1.54,1.29C568.2,290.63,568.35,290.84,568.33,290.86Z" style="fill:#455a64"></path><path d="M450,420.55l.09-.25.3-.69,1.21-2.67c1.08-2.35,2.64-5.73,4.58-10l15.93-34.2.07-.14h.16l19.68-.09,51.14-.11H552a6.11,6.11,0,0,0,3.4-.82,8.49,8.49,0,0,0,2.29-1.92,13.16,13.16,0,0,0,2-3.62l.35-1a1.8,1.8,0,0,1,.14-.35,2.9,2.9,0,0,1-.09.36c-.07.27-.17.62-.3,1.06a12.42,12.42,0,0,1-2,3.72,8.25,8.25,0,0,1-2.32,2,6.27,6.27,0,0,1-3.52.9l-8.83.07-51.14.26-19.68.07.23-.15c-6.49,13.75-12.1,25.64-16.1,34.13-2,4.2-3.6,7.56-4.72,9.89l-1.28,2.64-.34.67A1.41,1.41,0,0,1,450,420.55Z" style="fill:#263238"></path><path d="M501.77,330.87a.87.87,0,0,1-.28,0l-.82-.15-3.14-.65L486,327.55l-17.24-3.76-2.47-.54c-.82-.21-1.66-.4-2.51-.54a16.44,16.44,0,0,0-5.24-.1,9.75,9.75,0,0,0-4.84,2.26,15,15,0,0,0-3.36,4.48v0l-1.1,2.86c-5.87,15.08-11.17,28.72-15,38.63-1.93,4.91-3.51,8.9-4.61,11.69-.54,1.35-1,2.41-1.27,3.17-.15.33-.26.6-.35.81s-.13.28-.13.28a1.19,1.19,0,0,1,.08-.29c.08-.22.17-.5.3-.84.28-.77.68-1.84,1.18-3.2l4.46-11.75c3.82-9.93,9.07-23.59,14.88-38.68l1.11-2.86v0h0a15.29,15.29,0,0,1,3.48-4.63,10.3,10.3,0,0,1,5.09-2.37,16.88,16.88,0,0,1,5.41.12c.87.15,1.71.34,2.54.55l2.47.56L486,327.2l11.53,2.64,3.12.74.81.2Z" style="fill:#263238"></path><path d="M446.93,393.61l-7.21,21.44-31.79-12.59c1.39-3,20.25-2.55,20.25-2.55l4.1-11.54Z" style="fill:#CFD8DC"></path><path d="M438.56,402.43a1.42,1.42,0,0,1,.31,1.84,1.35,1.35,0,0,1-1.82.32,1.47,1.47,0,0,1-.32-1.95,1.4,1.4,0,0,1,1.93-.13" style="fill:#e0e0e0"></path><path d="M439.72,415.05l1.09-2.67-31-10.94s-1.66.06-1.89,1.12Z" style="fill:#e0e0e0"></path><path d="M427.73,399.55c-.06.15.69.53,1.26,1.33s.71,1.62.88,1.61.29-1-.41-1.95S427.75,399.39,427.73,399.55Z" style="fill:#e0e0e0"></path><path d="M423.85,399.6c-.1.14.47.67.74,1.54s.14,1.62.3,1.67.6-.78.25-1.85S423.91,399.46,423.85,399.6Z" style="fill:#e0e0e0"></path><path d="M420.37,402.85c.13.08.66-.61.59-1.61s-.65-1.64-.77-1.53.16.73.19,1.56S420.23,402.77,420.37,402.85Z" style="fill:#e0e0e0"></path><path d="M429.49,395.91c0,.17.81.24,1.66.64s1.43,1,1.56.86-.3-.92-1.31-1.38S429.46,395.76,429.49,395.91Z" style="fill:#e0e0e0"></path><path d="M431.74,392.44a3.32,3.32,0,0,0,1.6.62,7.57,7.57,0,0,0,1.87.15,8.79,8.79,0,0,0,1.1-.12,2.22,2.22,0,0,0,.63-.19.71.71,0,0,0,.4-.79.91.91,0,0,0-.54-.63,2,2,0,0,0-.63-.15,6.15,6.15,0,0,0-1.12-.06,5.91,5.91,0,0,0-1.85.39c-1,.39-1.49.87-1.45.92s.6-.27,1.57-.53a6.77,6.77,0,0,1,1.74-.24,6.11,6.11,0,0,1,1,.08c.37,0,.66.16.68.34s0,.09-.1.16a1.57,1.57,0,0,1-.46.14,10,10,0,0,1-1,.15,10.25,10.25,0,0,1-1.77,0A10.78,10.78,0,0,0,431.74,392.44Z" style="fill:#e0e0e0"></path><path d="M431.86,392.74c0,.05.57-.39,1-1.37a5.62,5.62,0,0,0,.47-1.83,5.37,5.37,0,0,0,0-1.13,1.43,1.43,0,0,0-.7-1.2.78.78,0,0,0-.84.18,2.59,2.59,0,0,0-.4.52A3.84,3.84,0,0,0,431,389a3.92,3.92,0,0,0,0,1.91c.29,1.07.87,1.52.9,1.47a13.25,13.25,0,0,1-.5-1.55,3.85,3.85,0,0,1,.09-1.7,3.29,3.29,0,0,1,.39-.91c.19-.32.42-.54.53-.45a1,1,0,0,1,.35.74,5.56,5.56,0,0,1-.27,2.73C432.18,392.17,431.78,392.68,431.86,392.74Z" style="fill:#e0e0e0"></path><path d="M482.88,284c-.29.67,1.68,44.47,1.68,44.47l31,17.8,2.24-2.2L488,326.51l-2.21-42.6Z" style="fill:#263238"></path><path d="M520.67,335.86l-7.84-6-12.48,3s.18,1.1,1.79,1.63l3.38-.53-6.24,4.27a3.45,3.45,0,0,0,2.41,2.41,6.18,6.18,0,0,1,3.12,2.23l3.21,3.38h8.55l5.81-.58-1.71-9.8Z" style="fill:#b78876"></path></g></svg>